<?xml version="1.0" encoding="utf-8"?>
<!-- Generator: Adobe Illustrator 14.0.0, SVG Export Plug-In . SVG Version: 6.00 Build 43363)  -->
<!DOCTYPE svg PUBLIC "-//W3C//DTD SVG 1.1//EN" "http://www.w3.org/Graphics/SVG/1.1/DTD/svg11.dtd">
<svg version="1.1" id="Layer_1" xmlns="http://www.w3.org/2000/svg" xmlns:xlink="http://www.w3.org/1999/xlink" x="0px" y="0px"
	 width="64px" height="64px" viewBox="0 0 64 64" enable-background="new 0 0 64 64" xml:space="preserve">
<rect x="0.064" y="0.064" fill="#32669A" width="64.024" height="64.024"/>
<polygon fill="#231F20" points="0.064,64.088 0.064,64.151 64.15,64.151 64.15,0 0,0 0,64.151 0.064,64.151 0.064,64.088 
	0.128,64.088 0.128,0.128 64.022,0.128 64.022,64.023 0.064,64.023 0.064,64.088 0.128,64.088 "/>
<path fill="#FFFFFF" d="M16.406,10.994h31.342c2.978,0,5.411,2.435,5.411,5.413v31.341c0,2.977-2.434,5.41-5.411,5.41H16.406
	c-2.978,0-5.415-2.434-5.415-5.41V16.407C10.992,13.428,13.429,10.994,16.406,10.994z M41.71,15.677
	c-1.045,0-1.897,0.856-1.897,1.901v4.542c0,1.045,0.853,1.9,1.897,1.9h4.766c1.044,0,1.898-0.854,1.898-1.9v-4.542
	c0-1.045-0.854-1.901-1.898-1.901H41.71z M48.393,28.825h-3.711c0.353,1.148,0.543,2.359,0.543,3.621
	c0,7.01-5.87,12.697-13.109,12.697c-7.237,0-13.107-5.687-13.107-12.697c0-1.261,0.192-2.473,0.542-3.621h-3.871v17.813
	c0,0.923,0.753,1.673,1.675,1.673h29.363c0.923,0,1.675-0.75,1.675-1.673V28.825z M32.115,23.78c-4.675,0-8.467,3.673-8.467,8.206
	c0,4.53,3.792,8.206,8.467,8.206c4.678,0,8.47-3.676,8.47-8.206C40.585,27.453,36.793,23.78,32.115,23.78z"/>
</svg>
