<?xml version="1.0" encoding="utf-8"?>
<!-- Generator: Adobe Illustrator 14.0.0, SVG Export Plug-In . SVG Version: 6.00 Build 43363)  -->
<!DOCTYPE svg PUBLIC "-//W3C//DTD SVG 1.1//EN" "http://www.w3.org/Graphics/SVG/1.1/DTD/svg11.dtd">
<svg version="1.1" id="Layer_1" xmlns="http://www.w3.org/2000/svg" xmlns:xlink="http://www.w3.org/1999/xlink" x="0px" y="0px"
	 width="64px" height="64px" viewBox="0 0 64 64" enable-background="new 0 0 64 64" xml:space="preserve">
<rect fill="#CC3732" width="64" height="64"/>
<path fill="#FFFFFF" d="M30.98,10.03c0.402,0.248,0.851,0.61,1.351,1.087c0.481,0.498,0.95,1.112,1.41,1.835
	c0.44,0.684,0.832,1.491,1.174,2.425c0.28,0.932,0.42,2.021,0.42,3.265c-0.037,2.28-0.541,4.104-1.512,5.474
	c-0.474,0.663-0.977,1.274-1.509,1.834c-0.589,0.557-1.214,1.129-1.878,1.709c-0.381,0.394-0.731,0.839-1.055,1.338
	c-0.378,0.518-0.569,1.118-0.569,1.801c0,0.668,0.194,1.216,0.583,1.65c0.33,0.415,0.654,0.778,0.965,1.088l2.163,1.773
	c1.343,1.102,2.521,2.309,3.535,3.636c0.954,1.351,1.449,3.11,1.493,5.286c0,3.09-1.367,5.823-4.094,8.212
	c-2.827,2.467-6.91,3.74-12.243,3.823c-4.466-0.041-7.799-0.993-10.002-2.853c-2.22-1.74-3.333-3.818-3.333-6.24
	c0-1.178,0.36-2.494,1.086-3.942c0.7-1.446,1.97-2.721,3.81-3.816c2.063-1.178,4.231-1.966,6.504-2.359
	c2.251-0.33,4.119-0.517,5.607-0.559c-0.459-0.605-0.869-1.251-1.229-1.938c-0.419-0.667-0.627-1.471-0.627-2.406
	c0-0.563,0.079-1.035,0.238-1.408c0.14-0.396,0.271-0.758,0.39-1.093c-0.723,0.081-1.408,0.123-2.046,0.123
	c-3.396-0.042-5.981-1.109-7.761-3.202c-1.864-1.951-2.796-4.22-2.796-6.811c0-3.132,1.318-5.969,3.96-8.521
	c1.812-1.491,3.695-2.463,5.647-2.922c1.935-0.394,3.747-0.591,5.437-0.591h12.749L34.91,10.03H30.98z M33.442,46.725
	c0-1.618-0.528-3.026-1.583-4.228c-1.116-1.142-2.861-2.54-5.237-4.201c-0.408-0.042-0.884-0.062-1.432-0.062
	c-0.324-0.04-1.158,0-2.496,0.124c-1.319,0.188-2.67,0.487-4.051,0.902c-0.325,0.124-0.78,0.312-1.368,0.561
	c-0.589,0.269-1.188,0.653-1.798,1.151c-0.589,0.518-1.086,1.159-1.491,1.928c-0.469,0.809-0.699,1.784-0.699,2.924
	c0,2.239,1.012,4.085,3.042,5.536c1.93,1.45,4.567,2.196,7.917,2.239c3.004-0.043,5.299-0.706,6.879-1.99
	C32.671,50.343,33.442,48.717,33.442,46.725z M24.555,28.038c1.679-0.062,3.077-0.666,4.195-1.809c0.541-0.81,0.887-1.64,1.04-2.492
	c0.093-0.853,0.141-1.567,0.141-2.15c0-2.512-0.644-5.048-1.929-7.601c-0.604-1.225-1.397-2.223-2.381-2.991
	c-1.006-0.725-2.16-1.11-3.466-1.152c-1.728,0.042-3.163,0.738-4.31,2.088c-0.966,1.413-1.428,2.991-1.384,4.737
	c0,2.305,0.672,4.701,2.022,7.196c0.655,1.163,1.496,2.149,2.53,2.959C22.046,27.634,23.226,28.038,24.555,28.038z"/>
<polygon fill="#FFFFFF" points="56.118,14.693 49.43,14.693 49.43,8.003 46.189,8.003 46.189,14.693 39.501,14.693 39.501,17.935 
	46.189,17.935 46.189,24.623 49.43,24.623 49.43,17.935 56.118,17.935 "/>
</svg>
