<?xml version="1.0" encoding="utf-8"?>
<!-- Generator: Adobe Illustrator 14.0.0, SVG Export Plug-In . SVG Version: 6.00 Build 43363)  -->
<!DOCTYPE svg PUBLIC "-//W3C//DTD SVG 1.1//EN" "http://www.w3.org/Graphics/SVG/1.1/DTD/svg11.dtd">
<svg version="1.1" id="Layer_1" xmlns="http://www.w3.org/2000/svg" xmlns:xlink="http://www.w3.org/1999/xlink" x="0px" y="0px"
	 width="64px" height="64px" viewBox="0 0 64 64" enable-background="new 0 0 64 64" xml:space="preserve">
<rect x="0.554" y="1.764" fill="#1D487A" width="62.892" height="60.473"/>
<path fill="#FFFFFF" d="M49.062,20.201c1.46,2.677,0.979,5.834,0.403,7.7c-3.111,10.163-17.148,9.61-19.18,9.61
	c-2.028,0-2.5,1.891-2.5,1.891l-1.517,6.617c-0.414,2.321-2.52,2.207-2.52,2.207s-2.738,0-4.569,0c-0.115,0-0.222-0.008-0.321-0.022
	c-0.022,0.426,0.038,1.668,1.559,1.668c1.83,0,4.567,0,4.567,0s2.106,0.118,2.521-2.204l1.515-6.616c0,0,0.474-1.892,2.502-1.892
	c2.027,0,16.068,0.553,19.181-9.61C51.398,27.277,51.964,23.104,49.062,20.201z"/>
<path fill="#FFFFFF" d="M24.857,44.576l1.517-6.617c0,0,0.471-1.888,2.502-1.888c2.026,0,16.067,0.549,19.178-9.611
	c1.139-3.714,1.93-12.526-12.247-12.526H25.567c0,0-2.128-0.099-2.654,2.164l-6.69,28.875c0,0-0.288,1.81,1.543,1.81
	c1.832,0,4.571,0,4.571,0S24.444,46.901,24.857,44.576z M28.716,27.78l1.359-5.868c0,0,0.433-1.595,1.833-1.832
	c1.397-0.238,3.778,0.042,4.392,0.158c3.977,0.747,3.131,4.509,3.131,4.509c-0.788,5.808-9.828,5.002-9.828,5.002
	C28.186,29.236,28.716,27.78,28.716,27.78z"/>
</svg>
