<?xml version="1.0" encoding="utf-8"?>
<!-- Generator: Adobe Illustrator 14.0.0, SVG Export Plug-In . SVG Version: 6.00 Build 43363)  -->
<!DOCTYPE svg PUBLIC "-//W3C//DTD SVG 1.1//EN" "http://www.w3.org/Graphics/SVG/1.1/DTD/svg11.dtd">
<svg version="1.1" id="Layer_1" xmlns="http://www.w3.org/2000/svg" xmlns:xlink="http://www.w3.org/1999/xlink" x="0px" y="0px"
	 width="64px" height="64px" viewBox="0 0 64 64" enable-background="new 0 0 64 64" xml:space="preserve">
<rect fill="#CD332D" width="64" height="64"/>
<path fill="#FFFFFF" d="M27.543,6.253h-2.915l-1.966,7.559l-2.045-7.559h-3.035c0.607,1.783,1.242,3.578,1.849,5.362
	c0.924,2.686,1.502,4.709,1.762,6.091v7.797h2.883v-7.797L27.543,6.253z M35.248,20.858v-5.025c0-1.533-0.264-2.653-0.808-3.38
	c-0.72-0.979-1.729-1.47-3.032-1.47c-1.295,0-2.309,0.491-3.027,1.47c-0.555,0.727-0.815,1.847-0.815,3.38v5.025
	c0,1.525,0.26,2.655,0.815,3.375c0.718,0.979,1.731,1.47,3.027,1.47c1.302,0,2.312-0.491,3.032-1.47
	C34.984,23.513,35.248,22.383,35.248,20.858z M32.648,21.349c0,1.327-0.402,1.99-1.239,1.99c-0.839,0-1.242-0.664-1.242-1.99v-6.036
	c0-1.328,0.403-1.989,1.242-1.989c0.837,0,1.239,0.661,1.239,1.989V21.349z M44.862,25.503V11.158h-2.601v10.964
	c-0.577,0.813-1.123,1.217-1.643,1.217c-0.35,0-0.552-0.206-0.608-0.609c-0.033-0.084-0.033-0.401-0.033-1.012V11.158h-2.591v11.343
	c0,1.012,0.088,1.7,0.232,2.133c0.257,0.727,0.836,1.068,1.673,1.068c0.947,0,1.935-0.578,2.97-1.765v1.566H44.862z"/>
<path fill="#FFFFFF" d="M53.281,42.915c0,3.317-0.001,6.839-0.746,10.062c-0.52,2.263-2.37,3.931-4.6,4.182
	c-5.277,0.589-10.622,0.592-15.938,0.589c-5.319,0.003-10.661,0-15.938-0.589c-2.23-0.251-4.082-1.919-4.601-4.182
	c-0.741-3.223-0.741-6.744-0.741-10.062c0-3.322,0.007-6.837,0.75-10.063c0.519-2.262,2.37-3.933,4.6-4.181
	c5.278-0.591,10.62-0.592,15.938-0.591c5.317-0.001,10.66,0,15.938,0.591c2.23,0.249,4.082,1.919,4.601,4.181
	C53.285,36.078,53.281,39.593,53.281,42.915z"/>
<path fill="#CD332D" d="M22.858,35.753v-2.684h-8.97v2.684h3.026v16.369h2.861V35.753H22.858z M28.055,52.122v-1.548
	c-1.021,1.173-1.992,1.745-2.938,1.745c-0.829,0-1.401-0.337-1.657-1.057c-0.142-0.433-0.228-1.107-0.228-2.111V37.926h2.571v10.453
	c0,0.601,0,0.917,0.023,1c0.063,0.398,0.258,0.601,0.602,0.601c0.516,0,1.059-0.398,1.626-1.203V37.926h2.576v14.196H28.055z
	 M37.831,48.066c0,1.282-0.378,1.913-1.119,1.913c-0.424,0-0.853-0.202-1.282-0.631v-8.654c0.43-0.424,0.858-0.626,1.282-0.626
	c0.741,0,1.119,0.659,1.119,1.938V48.066z M40.402,47.864v-5.656c0-1.342-0.088-2.282-0.259-2.853
	c-0.344-1.063-1.032-1.603-2.057-1.603c-0.946,0-1.826,0.52-2.657,1.539v-6.223h-2.573v19.053h2.573v-1.375
	c0.858,1.063,1.741,1.572,2.657,1.572c1.024,0,1.713-0.539,2.057-1.596C40.314,50.122,40.402,49.177,40.402,47.864z M47.538,43.352
	h-2.571v-1.313c0-1.312,0.432-1.971,1.29-1.971c0.852,0,1.281,0.659,1.281,1.971V43.352z M50.112,47.581v-0.375h-2.628
	c0,1.033-0.029,1.601-0.055,1.741c-0.147,0.687-0.518,1.032-1.149,1.032c-0.882,0-1.313-0.655-1.313-1.971v-2.515h5.146v-2.939
	c0-1.52-0.259-2.629-0.798-3.346c-0.721-0.974-1.743-1.456-3.034-1.456c-1.313,0-2.34,0.482-3.08,1.456
	c-0.549,0.717-0.796,1.826-0.796,3.346v4.973c0,1.505,0.28,2.628,0.826,3.336c0.743,0.971,1.766,1.456,3.114,1.456
	c1.342,0,2.397-0.509,3.11-1.539c0.312-0.456,0.513-0.974,0.601-1.541C50.079,48.979,50.112,48.408,50.112,47.581z"/>
</svg>
