<?xml version="1.0" encoding="utf-8"?>
<!-- Generator: Adobe Illustrator 14.0.0, SVG Export Plug-In . SVG Version: 6.00 Build 43363)  -->
<!DOCTYPE svg PUBLIC "-//W3C//DTD SVG 1.1//EN" "http://www.w3.org/Graphics/SVG/1.1/DTD/svg11.dtd">
<svg version="1.1" id="Layer_1" xmlns="http://www.w3.org/2000/svg" xmlns:xlink="http://www.w3.org/1999/xlink" x="0px" y="0px"
	 width="64px" height="64px" viewBox="0 0 64 64" enable-background="new 0 0 64 64" xml:space="preserve">
<g>
	
		<linearGradient id="SVGID_1_" gradientUnits="userSpaceOnUse" x1="1767.7246" y1="-183.6689" x2="1775.6768" y2="-183.6689" gradientTransform="matrix(0.9995 0.0319 0.0319 -0.9995 -1745.9423 -203.5266)">
		<stop  offset="0" style="stop-color:#641C0C"/>
		<stop  offset="0.0213" style="stop-color:#68210F"/>
		<stop  offset="0.168" style="stop-color:#84421C"/>
		<stop  offset="0.3008" style="stop-color:#9A5B24"/>
		<stop  offset="0.4142" style="stop-color:#A86B28"/>
		<stop  offset="0.4945" style="stop-color:#AD7029"/>
		<stop  offset="0.5774" style="stop-color:#A86B28"/>
		<stop  offset="0.6902" style="stop-color:#9B5C24"/>
		<stop  offset="0.8202" style="stop-color:#87451D"/>
		<stop  offset="0.962" style="stop-color:#6C2511"/>
		<stop  offset="1" style="stop-color:#641C0C"/>
	</linearGradient>
	<path fill="url(#SVGID_1_)" stroke="#7D3118" stroke-width="0.5" d="M19.329,31.697c-1.371,4.888,3.163,6.512,3.129,2.969
		c1.436,5.23-0.33,9.283-5.111,5.109c-1.756-1.531-2.745-3.584-2.07-5.045C16.571,32.139,18.461,31.658,19.329,31.697L19.329,31.697
		z"/>
	
		<linearGradient id="SVGID_2_" gradientUnits="userSpaceOnUse" x1="1794.9463" y1="-165.8125" x2="1806.1494" y2="-165.8125" gradientTransform="matrix(0.9995 0.0319 0.0319 -0.9995 -1745.9423 -203.5266)">
		<stop  offset="0" style="stop-color:#641C0C"/>
		<stop  offset="0.0213" style="stop-color:#68210F"/>
		<stop  offset="0.168" style="stop-color:#84421C"/>
		<stop  offset="0.3008" style="stop-color:#9A5B24"/>
		<stop  offset="0.4142" style="stop-color:#A86B28"/>
		<stop  offset="0.4945" style="stop-color:#AD7029"/>
		<stop  offset="0.5774" style="stop-color:#A86B28"/>
		<stop  offset="0.6902" style="stop-color:#9B5C24"/>
		<stop  offset="0.8202" style="stop-color:#87451D"/>
		<stop  offset="0.962" style="stop-color:#6C2511"/>
		<stop  offset="1" style="stop-color:#641C0C"/>
	</linearGradient>
	<path fill="url(#SVGID_2_)" stroke="#7D3118" stroke-width="0.5" d="M50.857,23.537c-3.166,2.445-6.035,1.734-5.004-1.859
		c-5.707-2.236-2.537-8.886,3.564-7.141c0.598,0.171,1.206,0.438,1.777,0.778c0.147,0.09-0.121,1.426,0.022,1.524
		c0.144,0.1,0.699-1.037,0.835-0.929c1.151,0.923,1.991,2.166,1.975,3.504c-0.01,0.739-0.332,1.255-0.563,1.617
		C52.943,21.708,52.275,22.259,50.857,23.537L50.857,23.537z"/>
	
		<linearGradient id="SVGID_3_" gradientUnits="userSpaceOnUse" x1="1798.9063" y1="-165.6504" x2="1801.8301" y2="-165.6504" gradientTransform="matrix(0.9995 0.0319 0.0319 -0.9995 -1745.9423 -203.5266)">
		<stop  offset="0" style="stop-color:#641C0C"/>
		<stop  offset="0.0213" style="stop-color:#68210F"/>
		<stop  offset="0.168" style="stop-color:#84421C"/>
		<stop  offset="0.3008" style="stop-color:#9A5B24"/>
		<stop  offset="0.4142" style="stop-color:#A86B28"/>
		<stop  offset="0.4945" style="stop-color:#AD7029"/>
		<stop  offset="0.5774" style="stop-color:#A86B28"/>
		<stop  offset="0.6902" style="stop-color:#9B5C24"/>
		<stop  offset="0.8202" style="stop-color:#87451D"/>
		<stop  offset="0.962" style="stop-color:#6C2511"/>
		<stop  offset="1" style="stop-color:#641C0C"/>
	</linearGradient>
	<path fill="url(#SVGID_3_)" stroke="#7D3118" stroke-width="0.5" d="M48.371,21.103c-1.003-0.435-1.174-0.367-1.633-0.383
		c0.439-0.724,0.746-2.298,0.394-2.869c1.269-0.187,2.58,0.652,2.575,1.52c-0.001,0.215-0.128,0.363-0.221,0.468
		C49.279,20.031,48.936,20.737,48.371,21.103L48.371,21.103z"/>
	
		<linearGradient id="SVGID_4_" gradientUnits="userSpaceOnUse" x1="1794.6445" y1="-167.9834" x2="1802.082" y2="-167.9834" gradientTransform="matrix(0.9995 0.0319 0.0319 -0.9995 -1745.9423 -203.5266)">
		<stop  offset="0" style="stop-color:#641C0C"/>
		<stop  offset="0.0213" style="stop-color:#68210F"/>
		<stop  offset="0.168" style="stop-color:#84421C"/>
		<stop  offset="0.3008" style="stop-color:#9A5B24"/>
		<stop  offset="0.4142" style="stop-color:#A86B28"/>
		<stop  offset="0.4945" style="stop-color:#AD7029"/>
		<stop  offset="0.5774" style="stop-color:#A86B28"/>
		<stop  offset="0.6902" style="stop-color:#9B5C24"/>
		<stop  offset="0.8202" style="stop-color:#87451D"/>
		<stop  offset="0.962" style="stop-color:#6C2511"/>
		<stop  offset="1" style="stop-color:#641C0C"/>
	</linearGradient>
	<path fill="url(#SVGID_4_)" stroke="#7D3118" stroke-width="0.5" d="M42.361,24.275c1.027,0.406,6.723,0.383,7.414,0.864
		c-1.84-1.644,0.066-4.839-0.065-5.829c-0.126,1.56-6.03,1.821-6.833-0.956C43.046,19.673,44.152,23.106,42.361,24.275
		L42.361,24.275z"/>
	
		<linearGradient id="SVGID_5_" gradientUnits="userSpaceOnUse" x1="1792.4453" y1="-191.8594" x2="1806.1338" y2="-191.8594" gradientTransform="matrix(0.9995 0.0319 0.0319 -0.9995 -1745.9423 -203.5266)">
		<stop  offset="0" style="stop-color:#641C0C"/>
		<stop  offset="0.0213" style="stop-color:#68210F"/>
		<stop  offset="0.168" style="stop-color:#84421C"/>
		<stop  offset="0.3008" style="stop-color:#9A5B24"/>
		<stop  offset="0.4142" style="stop-color:#A86B28"/>
		<stop  offset="0.4945" style="stop-color:#AD7029"/>
		<stop  offset="0.5774" style="stop-color:#A86B28"/>
		<stop  offset="0.6902" style="stop-color:#9B5C24"/>
		<stop  offset="0.8202" style="stop-color:#87451D"/>
		<stop  offset="0.962" style="stop-color:#6C2511"/>
		<stop  offset="1" style="stop-color:#641C0C"/>
	</linearGradient>
	<path fill="url(#SVGID_5_)" stroke="#7D3118" stroke-width="0.5" d="M51.143,49.637c1.524-0.351,1.93-1.494,1.989-2.691
		c0.062-1.184-0.461-2.926-0.465-3.41c-2.772,3.594-3.304-2.061-8.629-1.96c-2.14,0.844-5.276,3.004-4.414,4.751
		c1.26,2.551,2.592-0.146,5.403,0.669C47.357,47.67,48.109,50.333,51.143,49.637L51.143,49.637z"/>
	
		<linearGradient id="SVGID_6_" gradientUnits="userSpaceOnUse" x1="1796.5996" y1="-186.2666" x2="1790.5902" y2="-190.5719" gradientTransform="matrix(0.9995 0.0319 0.0319 -0.9995 -1745.9423 -203.5266)">
		<stop  offset="0" style="stop-color:#641C0C"/>
		<stop  offset="0.0213" style="stop-color:#68210F"/>
		<stop  offset="0.168" style="stop-color:#84421C"/>
		<stop  offset="0.3008" style="stop-color:#9A5B24"/>
		<stop  offset="0.4142" style="stop-color:#A86B28"/>
		<stop  offset="0.4945" style="stop-color:#AD7029"/>
		<stop  offset="0.5774" style="stop-color:#A86B28"/>
		<stop  offset="0.6902" style="stop-color:#9B5C24"/>
		<stop  offset="0.8202" style="stop-color:#87451D"/>
		<stop  offset="0.962" style="stop-color:#6C2511"/>
		<stop  offset="1" style="stop-color:#641C0C"/>
	</linearGradient>
	<path fill="url(#SVGID_6_)" stroke="#7D3118" stroke-width="0.5" d="M38.665,42.201c0.078,0.617-0.293,3.126,0.957,4.124
		c-0.743-3.119,5.151-2.032,5.239-3.995c0.113-0.719-0.407-2.126-1.164-3.133c-0.625-0.834-1.44-1.34-1.932-1.426
		C43.113,38.723,38.436,40.167,38.665,42.201L38.665,42.201z"/>
	
		<linearGradient id="SVGID_7_" gradientUnits="userSpaceOnUse" x1="1775.0244" y1="-193.7778" x2="1783.1113" y2="-193.7778" gradientTransform="matrix(0.9995 0.0319 0.0319 -0.9995 -1745.9423 -203.5266)">
		<stop  offset="0" style="stop-color:#641C0C"/>
		<stop  offset="0.0213" style="stop-color:#68210F"/>
		<stop  offset="0.168" style="stop-color:#84421C"/>
		<stop  offset="0.3008" style="stop-color:#9A5B24"/>
		<stop  offset="0.4142" style="stop-color:#A86B28"/>
		<stop  offset="0.4945" style="stop-color:#AD7029"/>
		<stop  offset="0.5774" style="stop-color:#A86B28"/>
		<stop  offset="0.6902" style="stop-color:#9B5C24"/>
		<stop  offset="0.8202" style="stop-color:#87451D"/>
		<stop  offset="0.962" style="stop-color:#6C2511"/>
		<stop  offset="1" style="stop-color:#641C0C"/>
	</linearGradient>
	<path fill="url(#SVGID_7_)" stroke="#7D3118" stroke-width="0.5" d="M22.091,44.33c0.652,0.576,0.355,1.251,0.515,1.811
		c0.157,0.559,0.358,0.805,0.532,1.071c1.21,1.879,3.823,2.911,5.986,2.14c0.875-0.48,0.732-0.527,0.947-1.541
		c-2.27,1.684-5.215,0.27-6.59-1.802C23.073,45.395,22.521,43.527,22.091,44.33L22.091,44.33z"/>
	
		<linearGradient id="SVGID_8_" gradientUnits="userSpaceOnUse" x1="1783.1348" y1="-191.1392" x2="1783.5831" y2="-196.5194" gradientTransform="matrix(0.9995 0.0319 0.0319 -0.9995 -1745.9423 -203.5266)">
		<stop  offset="0" style="stop-color:#641C0C"/>
		<stop  offset="0.0213" style="stop-color:#68210F"/>
		<stop  offset="0.168" style="stop-color:#84421C"/>
		<stop  offset="0.3008" style="stop-color:#9A5B24"/>
		<stop  offset="0.4142" style="stop-color:#A86B28"/>
		<stop  offset="0.4945" style="stop-color:#AD7029"/>
		<stop  offset="0.5774" style="stop-color:#A86B28"/>
		<stop  offset="0.6902" style="stop-color:#9B5C24"/>
		<stop  offset="0.8202" style="stop-color:#87451D"/>
		<stop  offset="0.962" style="stop-color:#6C2511"/>
		<stop  offset="1" style="stop-color:#641C0C"/>
	</linearGradient>
	<path fill="url(#SVGID_8_)" stroke="#7D3118" stroke-width="0.5" d="M29.124,49.352c2.364-1.59-1.236-2.383,0.082-3.887
		c0.761-0.876,1.295-1.313,2.337-2.07c-1.728,1.955-0.507,1.908-0.658,3.672C30.811,47.943,30.114,49.148,29.124,49.352
		L29.124,49.352z"/>
	
		<linearGradient id="SVGID_9_" gradientUnits="userSpaceOnUse" x1="1775.7129" y1="-181.1807" x2="1783.6958" y2="-190.8678" gradientTransform="matrix(0.9995 0.0319 0.0319 -0.9995 -1745.9423 -203.5266)">
		<stop  offset="0" style="stop-color:#641C0C"/>
		<stop  offset="0.0213" style="stop-color:#68210F"/>
		<stop  offset="0.168" style="stop-color:#84421C"/>
		<stop  offset="0.3008" style="stop-color:#9A5B24"/>
		<stop  offset="0.4142" style="stop-color:#A86B28"/>
		<stop  offset="0.4945" style="stop-color:#AD7029"/>
		<stop  offset="0.5774" style="stop-color:#A86B28"/>
		<stop  offset="0.6902" style="stop-color:#9B5C24"/>
		<stop  offset="0.8202" style="stop-color:#87451D"/>
		<stop  offset="0.962" style="stop-color:#6C2511"/>
		<stop  offset="1" style="stop-color:#641C0C"/>
	</linearGradient>
	<path fill="url(#SVGID_9_)" stroke="#7D3118" stroke-width="0.5" d="M23.603,33.041c2.531,0.963,7.039,4.559,7.971,7.509
		c0.924,2.927-0.277,3.106-2.367,4.915c0.193-0.706,0.354-0.895-0.385-2.443c-1.918-4.015-5.82-6.729-5.969-3.885
		C22.758,35.986,21.745,32.334,23.603,33.041L23.603,33.041z"/>
	
		<linearGradient id="SVGID_10_" gradientUnits="userSpaceOnUse" x1="1774.9717" y1="-190.7793" x2="1778.6396" y2="-190.7793" gradientTransform="matrix(0.9995 0.0319 0.0319 -0.9995 -1745.9423 -203.5266)">
		<stop  offset="0" style="stop-color:#641C0C"/>
		<stop  offset="0.0213" style="stop-color:#68210F"/>
		<stop  offset="0.168" style="stop-color:#84421C"/>
		<stop  offset="0.3008" style="stop-color:#9A5B24"/>
		<stop  offset="0.4142" style="stop-color:#A86B28"/>
		<stop  offset="0.4945" style="stop-color:#AD7029"/>
		<stop  offset="0.5774" style="stop-color:#A86B28"/>
		<stop  offset="0.6902" style="stop-color:#9B5C24"/>
		<stop  offset="0.8202" style="stop-color:#87451D"/>
		<stop  offset="0.962" style="stop-color:#6C2511"/>
		<stop  offset="1" style="stop-color:#641C0C"/>
	</linearGradient>
	<path fill="url(#SVGID_10_)" stroke="#7D3118" stroke-width="0.5" d="M25.763,42.598c-1.977-2.414-4.052,1.043-3.672,1.732
		c0.355,0.604,0.598,0.382,1.338,1.592C22.547,44.413,23.603,41.167,25.763,42.598L25.763,42.598z"/>
	
		<linearGradient id="SVGID_11_" gradientUnits="userSpaceOnUse" x1="1803.3838" y1="-182.7656" x2="1810.5615" y2="-182.7656" gradientTransform="matrix(0.9995 0.0319 0.0319 -0.9995 -1745.9423 -203.5266)">
		<stop  offset="0" style="stop-color:#641C0C"/>
		<stop  offset="0.0213" style="stop-color:#68210F"/>
		<stop  offset="0.168" style="stop-color:#84421C"/>
		<stop  offset="0.3008" style="stop-color:#9A5B24"/>
		<stop  offset="0.4142" style="stop-color:#A86B28"/>
		<stop  offset="0.4945" style="stop-color:#AD7029"/>
		<stop  offset="0.5774" style="stop-color:#A86B28"/>
		<stop  offset="0.6902" style="stop-color:#9B5C24"/>
		<stop  offset="0.8202" style="stop-color:#87451D"/>
		<stop  offset="0.962" style="stop-color:#6C2511"/>
		<stop  offset="1" style="stop-color:#641C0C"/>
	</linearGradient>
	<path fill="url(#SVGID_11_)" stroke="#7D3118" stroke-width="0.5" d="M50.95,33.348c0.629,0.442,2.2-0.293,3.209,0.063
		c2.106,0.743,3.918,2.606,3.668,4.892c-0.269,0.961-0.711,1.561-1.647,2.004c1.112-2.598-0.943-5.136-3.275-5.994
		C52.212,34.057,50.27,33.95,50.95,33.348L50.95,33.348z"/>
	
		<linearGradient id="SVGID_12_" gradientUnits="userSpaceOnUse" x1="1804.2422" y1="-179.6875" x2="1802.2689" y2="-183.4546" gradientTransform="matrix(0.9995 0.0319 0.0319 -0.9995 -1745.9423 -203.5266)">
		<stop  offset="0" style="stop-color:#641C0C"/>
		<stop  offset="0.0213" style="stop-color:#68210F"/>
		<stop  offset="0.168" style="stop-color:#84421C"/>
		<stop  offset="0.3008" style="stop-color:#9A5B24"/>
		<stop  offset="0.4142" style="stop-color:#A86B28"/>
		<stop  offset="0.4945" style="stop-color:#AD7029"/>
		<stop  offset="0.5774" style="stop-color:#A86B28"/>
		<stop  offset="0.6902" style="stop-color:#9B5C24"/>
		<stop  offset="0.8202" style="stop-color:#87451D"/>
		<stop  offset="0.962" style="stop-color:#6C2511"/>
		<stop  offset="1" style="stop-color:#641C0C"/>
	</linearGradient>
	<path fill="url(#SVGID_12_)" stroke="#7D3118" stroke-width="0.5" d="M50.848,37.41c-2.807-1.364-0.656-4.273,0.104-4.063
		c0.669,0.205,0.509,0.491,1.857,0.932C51.137,33.771,48.956,35.639,50.848,37.41L50.848,37.41z"/>
	
		<linearGradient id="SVGID_13_" gradientUnits="userSpaceOnUse" x1="1805.5146" y1="-190.5981" x2="1810.4482" y2="-186.2028" gradientTransform="matrix(0.9995 0.0319 0.0319 -0.9995 -1745.9423 -203.5266)">
		<stop  offset="0" style="stop-color:#641C0C"/>
		<stop  offset="0.0213" style="stop-color:#68210F"/>
		<stop  offset="0.168" style="stop-color:#84421C"/>
		<stop  offset="0.3008" style="stop-color:#9A5B24"/>
		<stop  offset="0.4142" style="stop-color:#A86B28"/>
		<stop  offset="0.4945" style="stop-color:#AD7029"/>
		<stop  offset="0.5774" style="stop-color:#A86B28"/>
		<stop  offset="0.6902" style="stop-color:#9B5C24"/>
		<stop  offset="0.8202" style="stop-color:#87451D"/>
		<stop  offset="0.962" style="stop-color:#6C2511"/>
		<stop  offset="1" style="stop-color:#641C0C"/>
	</linearGradient>
	<path fill="url(#SVGID_13_)" stroke="#7D3118" stroke-width="0.5" d="M52.688,43.975c0.08,0.616,0.264,1.424,0.43,2.301
		c-0.266-2.547,2.667-3.446,3.297-4.264c1.041-1.355,0.531-2.057,0.936-2.639c-1.063,1.393-1.992,0.945-3.055,1.652
		C53.501,41.555,52.563,42.878,52.688,43.975L52.688,43.975z"/>
	
		<linearGradient id="SVGID_14_" gradientUnits="userSpaceOnUse" x1="1767.9082" y1="-176.6504" x2="1805.6406" y2="-176.6504" gradientTransform="matrix(0.9995 0.0319 0.0319 -0.9995 -1745.9423 -203.5266)">
		<stop  offset="0" style="stop-color:#C1812B"/>
		<stop  offset="0.0889" style="stop-color:#CE983D"/>
		<stop  offset="0.2172" style="stop-color:#E0B85D"/>
		<stop  offset="0.3355" style="stop-color:#EFD277"/>
		<stop  offset="0.4391" style="stop-color:#FAE387"/>
		<stop  offset="0.5165" style="stop-color:#FFEA8D"/>
		<stop  offset="0.5883" style="stop-color:#FAE387"/>
		<stop  offset="0.6865" style="stop-color:#EFD176"/>
		<stop  offset="0.7998" style="stop-color:#DFB75B"/>
		<stop  offset="0.9236" style="stop-color:#CD953B"/>
		<stop  offset="1" style="stop-color:#C1812B"/>
	</linearGradient>
	<path fill="url(#SVGID_14_)" stroke="#7D3118" stroke-width="0.5" d="M17.51,19.12c0.788-0.32,1.564-0.578,2.327-0.778
		c0.193-0.051,0.398,1.985,0.605,2.298c0.246-0.056,0.121-2.446,0.713-2.592c0.462-0.114,0.933-0.151,1.393-0.197
		c0.168-0.017,0.382,0.641,0.548,0.629c0.167-0.012,0.285-0.692,0.45-0.7c12.343-0.521,22.036,12.027,29.921,3.253
		c-3.749,4.992-8.306,14.962-8.604,21.298c-0.67-4.093-3.569-5.065-6.781-5.771c-0.137-0.031,0.225-1.978,0.088-2.006
		c-0.137-0.029-0.773,1.858-0.911,1.83c-2.188-0.459-4.442-0.9-6.185-2.199c-4.863-3.626-13.414-4.162-15.796,0.547
		c1.404-2.861,2.24-8.605,2.025-11.312c-0.146-1.829-0.588-3.209-0.622-3.608C16.659,19.572,16.841,19.392,17.51,19.12L17.51,19.12z
		"/>
</g>
</svg>
