<?xml version="1.0" encoding="utf-8"?>
<!-- Generator: Adobe Illustrator 14.0.0, SVG Export Plug-In . SVG Version: 6.00 Build 43363)  -->
<!DOCTYPE svg PUBLIC "-//W3C//DTD SVG 1.1//EN" "http://www.w3.org/Graphics/SVG/1.1/DTD/svg11.dtd">
<svg version="1.1" id="Layer_1" xmlns="http://www.w3.org/2000/svg" xmlns:xlink="http://www.w3.org/1999/xlink" x="0px" y="0px"
	 width="64px" height="64px" viewBox="0 0 64 64" enable-background="new 0 0 64 64" xml:space="preserve">
<g>
	<path d="M38.251,47.762c-1.938-6.754-6.703-11.402-10.133-14.729c-1.275-1.218-2.384-2.269-3.048-3.209
		c-0.277-0.444-0.497-0.884-0.555-1.271c-0.053-0.225-0.053-0.445,0-0.664c0.115-0.168,0.225-0.393,0.335-0.555
		c2.881-2.938,5.589-5.981,8.302-8.972c2.771-3.042,5.705-5.976,8.31-9.077c0.052-0.167,0.167-0.554,0.438,0.11
		c1.662,4.371,4.764,8.193,7.863,12.015c2.217,2.766,4.43,5.479,5.981,8.303c0.606,1.109,1.051,1.939,0.993,2.824
		c-0.053,0.832-0.606,1.662-1.657,2.824C49.764,40.84,44.729,46.492,39.52,52.082c0,0.109-0.052,0.166-0.108,0.277
		c-0.058,0.166-0.22,0.274-0.444,0.387c-0.168,0.109-0.388,0.109-0.664,0.057c-0.277,0-0.496-0.225-0.664-0.387
		c-0.166-0.225-0.328-0.502-0.443-0.721c-0.221-0.336-0.387-0.555-0.549-0.775c-0.059-0.109-0.168-0.166-0.227-0.225
		c-0.052-0.053-0.167-0.053-0.167-0.053c-0.108,0-0.162-0.058-0.162-0.058c-0.058,0-0.058-0.053-0.114-0.053
		c-0.053-0.115-0.109-0.277,0-0.335L38.251,47.762z"/>
	<path fill="#FFFFFF" d="M44.563,15.429c1.328,1.94,2.824,3.822,4.318,5.647c-0.555,0.722-1.107,1.386-1.663,2.05
		c-0.606,0.831-1.218,1.605-1.823,2.379c-1.605-1.772-3.217-3.597-4.653-5.427c0.663-0.826,1.327-1.605,2.049-2.432
		C43.396,16.867,43.95,16.151,44.563,15.429z"/>
	<path fill="#FFFFFF" d="M38.025,34.695c-1.438-1.824-3.043-3.654-4.705-5.369c-0.606,0.722-1.218,1.438-1.772,2.212
		c-0.554,0.831-1.108,1.719-1.715,2.493c-0.496-0.496-0.884-0.883-1.386-1.385c-1.328-1.271-2.321-2.27-2.933-3.101
		c-0.329-0.438-0.497-0.831-0.555-1.108c0-0.162,0-0.277,0.058-0.439c0.053-0.109,0.11-0.225,0.22-0.334
		c1.108-1.161,2.217-2.327,3.32-3.545c1.333,1.83,2.99,3.545,4.71,5.208c0.606-0.773,1.219-1.495,1.769-2.217
		c0.61-0.716,1.218-1.496,1.829-2.269c-1.553-1.772-2.823-3.655-3.821-5.647c0.167-0.167,0.334-0.387,0.502-0.554
		c1.271-1.438,2.599-2.881,3.927-4.319c0.94,1.992,1.998,3.875,3.269,5.757c-0.664,0.779-1.328,1.61-1.992,2.437
		c-0.664,0.779-1.274,1.553-1.883,2.327c1.663,1.773,3.319,3.544,4.874,5.318c-0.612,0.773-1.219,1.547-1.831,2.269
		C39.303,33.201,38.639,33.922,38.025,34.695z"/>
	<path fill="#FFFFFF" d="M41.791,30.159c0.611-0.779,1.218-1.553,1.83-2.27c0.554-0.779,1.161-1.611,1.771-2.384
		c1.549,1.83,2.985,3.712,4.318,5.594c0.664-0.831,1.271-1.604,1.936-2.384c0.502-0.664,1.051-1.328,1.604-1.992
		c0.778,1.051,1.442,2.107,2.05,3.158c0.664,1.218,0.998,1.882,0.941,2.546c-0.053,0.721-0.445,1.385-1.549,2.545
		c-0.555,0.555-1.107,1.161-1.662,1.772c-0.998-1.938-2.102-3.822-3.32-5.705c-0.611,0.832-1.275,1.604-1.939,2.378
		c-0.61,0.779-1.274,1.553-1.938,2.328c1.056,1.83,1.997,3.711,2.771,5.646c-0.554,0.61-1.164,1.274-1.715,1.883
		c-0.939,0.998-1.888,1.996-2.828,2.99c-0.549-2.052-1.328-3.933-2.211-5.814c-0.664,0.832-1.387,1.605-1.992,2.436
		c-0.611,0.891-1.276,1.721-1.883,2.494c-0.89-2.217-2.106-4.209-3.377-5.98c0.553-0.772,1.103-1.549,1.656-2.325
		c0.555-0.826,1.219-1.604,1.83-2.382c1.387,1.884,2.604,3.822,3.766,5.759c0.664-0.772,1.328-1.604,1.991-2.322
		c0.664-0.778,1.328-1.608,1.992-2.383C44.613,33.865,43.234,31.983,41.791,30.159z"/>
	<path fill="#FFFFFF" d="M36.646,50.256c0,0,0,0,0.051,0c0.111,0.111,0.221,0.221,0.336,0.33c0.219,0.225,0.387,0.555,0.554,0.832
		c0.162,0.277,0.33,0.496,0.438,0.664c0.168,0.166,0.277,0.219,0.336,0.219c0.219,0.059,0.328,0.059,0.438,0
		c0.059-0.053,0.168-0.109,0.168-0.219c0.059,0,0,0,0,0v-0.277c-0.109-1.219-0.33-2.379-0.605-3.488L36.646,50.256z"/>
	<path fill="#FFFFFF" d="M44.563,15.429c1.328,1.992,2.824,3.822,4.318,5.705c-0.555,0.664-1.107,1.38-1.663,2.044
		c-0.606,0.779-1.218,1.553-1.823,2.384c-1.605-1.83-3.158-3.603-4.653-5.484c0.663-0.774,1.386-1.605,2.049-2.379
		C43.396,16.925,44.008,16.203,44.563,15.429z"/>
	<path d="M41.791,30.21c-0.605,0.778-1.271,1.495-1.883,2.269c-0.605,0.722-1.219,1.496-1.824,2.275l0,0l0,0
		c1.387,1.883,2.604,3.764,3.766,5.756c0.664-0.83,1.328-1.604,1.991-2.379c0.722-0.779,1.386-1.553,2.05-2.326
		C44.613,33.922,43.234,32.041,41.791,30.21L41.791,30.21L41.791,30.21z"/>
	<path d="M41.294,6.959L41.294,6.959c0.388,0.387,0.444,0.994,0.058,1.438L9.013,43.941c-0.387,0.442-0.993,0.442-1.438,0.113l0,0
		C7.188,43.668,7.131,43,7.522,42.613L39.855,7.011C40.243,6.625,40.907,6.572,41.294,6.959z"/>
</g>
</svg>
