<?xml version="1.0" encoding="utf-8"?>
<!-- Generator: Adobe Illustrator 14.0.0, SVG Export Plug-In . SVG Version: 6.00 Build 43363)  -->
<!DOCTYPE svg PUBLIC "-//W3C//DTD SVG 1.1//EN" "http://www.w3.org/Graphics/SVG/1.1/DTD/svg11.dtd">
<svg version="1.1" id="Layer_1" xmlns="http://www.w3.org/2000/svg" xmlns:xlink="http://www.w3.org/1999/xlink" x="0px" y="0px"
	 width="64px" height="64px" viewBox="0 0 64 64" enable-background="new 0 0 64 64" xml:space="preserve">
<g>
	<polygon points="17.504,25.722 17.833,25.664 18.17,25.59 18.5,25.548 18.83,25.507 19.167,25.482 19.488,25.466 19.801,25.458 
		20.122,25.441 20.443,25.441 20.748,25.458 21.365,25.482 21.983,25.54 22.559,25.623 23.144,25.722 23.712,25.829 24.264,25.936 
		24.824,26.075 25.351,26.232 25.861,26.38 26.372,26.537 26.857,26.685 27.343,26.841 27.804,26.989 28.24,27.129 28.685,27.27 
		29.105,27.393 29.508,27.508 29.895,27.599 30.282,27.673 30.645,27.73 30.99,27.755 31.155,27.771 31.32,27.771 31.476,27.755 
		31.625,27.755 31.781,27.73 31.929,27.697 32.085,27.656 32.217,27.615 32.349,27.558 32.48,27.492 32.611,27.426 32.736,27.335 
		32.744,27.146 32.793,26.948 32.843,26.767 32.925,26.603 33.023,26.438 33.146,26.29 33.305,26.133 33.469,25.993 33.65,25.87 
		33.855,25.746 34.078,25.631 34.316,25.524 34.58,25.425 34.844,25.326 35.132,25.244 35.438,25.178 35.766,25.104 36.087,25.038 
		36.449,24.98 36.795,24.931 37.166,24.89 37.561,24.857 37.947,24.832 38.352,24.799 38.764,24.791 39.184,24.774 39.611,24.758 
		40.055,24.758 40.492,24.774 40.938,24.791 41.85,24.832 42.781,24.898 43.736,24.98 44.691,25.096 45.654,25.219 46.609,25.359 
		47.564,25.524 48.494,25.705 49.408,25.895 50.307,26.117 50.751,26.232 51.18,26.339 51.607,26.462 52.012,26.578 52.43,26.701 
		52.816,26.841 53.204,26.965 53.583,27.104 53.938,27.245 54.283,27.385 54.629,27.516 54.949,27.673 55.254,27.813 55.551,27.961 
		51.829,39.891 13.502,39.857 	"/>
	<polygon fill="#FFFFFF" points="55.064,28.101 55.064,28.101 55.049,28.101 55.023,28.084 55.008,28.084 54.967,28.06 
		54.908,28.043 54.867,28.035 54.811,28.002 54.744,27.978 54.67,27.953 54.497,27.895 54.299,27.821 54.094,27.739 53.838,27.656 
		53.583,27.558 53.287,27.467 52.965,27.352 52.637,27.245 52.273,27.129 51.92,27.022 51.523,26.907 51.113,26.783 50.693,26.677 
		50.256,26.553 49.813,26.438 49.334,26.331 48.865,26.215 48.396,26.108 47.895,26.01 47.4,25.911 46.881,25.812 46.371,25.729 
		45.859,25.664 45.333,25.59 44.807,25.524 44.279,25.482 43.752,25.441 41.941,32.662 42.09,32.662 42.172,32.68 42.27,32.68 
		42.492,32.688 42.74,32.703 43.02,32.729 43.309,32.762 43.645,32.786 43.991,32.811 44.346,32.852 44.725,32.909 45.111,32.95 
		45.514,33.008 45.926,33.064 46.346,33.115 47.202,33.255 48.074,33.411 48.939,33.561 49.352,33.658 49.771,33.74 50.166,33.84 
		50.563,33.938 50.932,34.045 51.277,34.145 51.623,34.252 51.943,34.367 52.232,34.475 52.496,34.605 52.752,34.713 52.957,34.836 
			"/>
	<polygon fill="#FFFFFF" points="41.867,32.604 41.85,32.604 41.842,32.588 41.826,32.588 41.785,32.588 41.743,32.58 41.702,32.58 
		41.628,32.563 41.578,32.547 41.496,32.539 41.414,32.521 41.232,32.498 41.02,32.465 40.788,32.44 40.525,32.399 40.245,32.374 
		39.939,32.341 39.635,32.3 39.307,32.275 38.961,32.242 38.613,32.218 38.252,32.193 37.503,32.16 36.754,32.16 36.375,32.16 
		36.004,32.193 35.643,32.201 35.288,32.242 34.934,32.284 34.605,32.341 34.283,32.415 33.971,32.498 33.691,32.58 33.41,32.688 
		33.164,32.811 32.941,32.95 32.736,39.619 40.385,39.619 	"/>
	<polygon fill="#FFFFFF" points="32.39,28.035 32.233,32.95 32.011,33.023 31.781,33.064 31.525,33.107 31.279,33.115 
		31.032,33.115 30.768,33.115 30.504,33.107 30.241,33.074 29.961,33.033 29.698,32.992 29.129,32.885 28.562,32.745 27.993,32.604 
		26.874,32.3 26.313,32.16 25.778,32.053 25.515,32.012 25.252,31.971 24.997,31.938 24.749,31.929 24.502,31.913 24.264,31.913 
		24.041,31.938 23.819,31.971 23.819,31.971 25.153,26.562 25.4,26.66 25.655,26.759 26.166,26.948 26.717,27.146 27.277,27.327 
		27.845,27.492 28.413,27.656 28.965,27.796 29.508,27.936 29.772,27.994 30.036,28.035 30.282,28.084 30.513,28.125 30.751,28.158 
		30.974,28.183 31.18,28.216 31.377,28.216 31.559,28.225 31.723,28.225 31.872,28.216 32.011,28.2 32.135,28.167 32.233,28.125 
		32.316,28.084 	"/>
	<polygon fill="#FFFFFF" points="23.794,31.995 23.654,31.929 23.49,31.855 23.325,31.79 23.144,31.732 22.962,31.674 
		22.765,31.625 22.559,31.583 22.354,31.526 22.131,31.485 21.893,31.452 21.423,31.386 20.937,31.345 20.443,31.304 19.924,31.287 
		19.414,31.279 18.912,31.287 18.418,31.32 17.932,31.345 17.446,31.402 17.224,31.427 17.001,31.468 16.796,31.493 16.59,31.542 
		16.59,31.551 16.59,31.567 16.573,31.592 16.557,31.633 16.549,31.674 16.532,31.748 16.516,31.814 16.491,31.888 16.467,31.971 
		16.434,32.061 16.409,32.177 16.376,32.284 16.31,32.521 16.244,32.803 16.162,33.09 16.063,33.411 15.964,33.725 15.866,34.078 
		15.767,34.434 15.66,34.811 15.454,35.544 15.24,36.293 15.133,36.654 15.034,37.01 14.935,37.363 14.844,37.693 14.754,37.998 
		14.671,38.285 14.589,38.549 14.548,38.673 14.523,38.788 14.499,38.895 14.466,38.994 14.441,39.093 14.408,39.175 14.383,39.24 
		14.367,39.314 14.359,39.373 14.342,39.414 14.326,39.455 14.317,39.479 14.317,39.496 14.383,39.496 14.424,39.496 15.24,39.496 
		15.503,39.504 15.783,39.496 17.076,39.496 17.792,39.496 18.517,39.496 19.233,39.496 19.941,39.496 20.262,39.479 20.888,39.479 
		21.16,39.479 21.851,39.479 21.933,39.479 22.354,39.479 	"/>
</g>
</svg>
