<?xml version="1.0" encoding="utf-8"?>
<!-- Generator: Adobe Illustrator 14.0.0, SVG Export Plug-In . SVG Version: 6.00 Build 43363)  -->
<!DOCTYPE svg PUBLIC "-//W3C//DTD SVG 1.1//EN" "http://www.w3.org/Graphics/SVG/1.1/DTD/svg11.dtd">
<svg version="1.1" id="Layer_1" xmlns="http://www.w3.org/2000/svg" xmlns:xlink="http://www.w3.org/1999/xlink" x="0px" y="0px"
	 width="64px" height="64px" viewBox="0 0 64 64" enable-background="new 0 0 64 64" xml:space="preserve">
<g>
	<rect x="55.197" y="25.575" width="0.805" height="0.803"/>
	<rect x="53.586" y="26.427" width="0.805" height="0.803"/>
	<rect x="51.984" y="27.204" width="0.803" height="0.804"/>
	<rect x="50.373" y="27.915" width="0.803" height="0.804"/>
	<rect x="48.766" y="28.552" width="0.803" height="0.803"/>
	<rect x="47.158" y="29.109" width="0.805" height="0.803"/>
	<rect x="45.547" y="29.583" width="0.805" height="0.803"/>
	<rect x="54.395" y="26.839" width="0.803" height="0.804"/>
	<rect x="52.787" y="27.665" width="0.803" height="0.803"/>
	<rect x="51.18" y="28.407" width="0.805" height="0.803"/>
	<rect x="49.574" y="29.074" width="0.803" height="0.803"/>
	<rect x="47.963" y="29.658" width="0.803" height="0.803"/>
	<rect x="46.352" y="30.172" width="0.803" height="0.803"/>
	<rect x="44.744" y="30.589" width="0.803" height="0.803"/>
	<rect x="55.197" y="27.199" width="0.805" height="0.804"/>
	<rect x="53.586" y="28.095" width="0.805" height="0.803"/>
	<rect x="51.984" y="28.881" width="0.803" height="0.804"/>
	<rect x="50.373" y="29.579" width="0.803" height="0.803"/>
	<rect x="48.766" y="30.198" width="0.803" height="0.803"/>
	<rect x="47.154" y="30.733" width="0.803" height="0.804"/>
	<rect x="45.547" y="31.195" width="0.805" height="0.803"/>
	<rect x="54.395" y="28.495" width="0.803" height="0.803"/>
	<rect x="52.783" y="29.342" width="0.803" height="0.804"/>
	<rect x="51.18" y="30.08" width="0.805" height="0.803"/>
	<rect x="49.568" y="30.725" width="0.805" height="0.804"/>
	<rect x="47.963" y="31.295" width="0.803" height="0.804"/>
	<rect x="46.346" y="31.792" width="0.805" height="0.804"/>
	<rect x="44.744" y="32.2" width="0.803" height="0.804"/>
	<rect x="55.197" y="28.824" width="0.805" height="0.804"/>
	<rect x="53.586" y="29.764" width="0.805" height="0.803"/>
	<rect x="51.979" y="30.554" width="0.806" height="0.803"/>
	<rect x="50.373" y="31.243" width="0.803" height="0.804"/>
	<rect x="48.762" y="31.844" width="0.803" height="0.804"/>
	<rect x="47.15" y="32.367" width="0.803" height="0.803"/>
	<rect x="45.543" y="32.811" width="0.803" height="0.803"/>
	<rect x="54.395" y="30.15" width="0.803" height="0.803"/>
	<rect x="52.783" y="31.01" width="0.803" height="0.803"/>
	<rect x="51.176" y="31.744" width="0.803" height="0.803"/>
	<rect x="49.568" y="32.385" width="0.805" height="0.802"/>
	<rect x="47.957" y="32.938" width="0.805" height="0.805"/>
	<rect x="46.342" y="33.416" width="0.805" height="0.805"/>
	<rect x="44.74" y="33.813" width="0.803" height="0.804"/>
	<rect x="55.197" y="30.448" width="0.805" height="0.804"/>
	<rect x="53.586" y="31.432" width="0.805" height="0.804"/>
	<rect x="51.979" y="32.227" width="0.806" height="0.802"/>
	<rect x="50.367" y="32.906" width="0.805" height="0.805"/>
	<rect x="48.762" y="33.495" width="0.803" height="0.804"/>
	<rect x="47.15" y="34" width="0.803" height="0.805"/>
	<rect x="45.539" y="34.426" width="0.803" height="0.805"/>
	<rect x="54.395" y="31.801" width="0.803" height="0.803"/>
	<rect x="52.783" y="32.688" width="0.803" height="0.804"/>
	<rect x="51.176" y="33.416" width="0.803" height="0.805"/>
	<rect x="49.564" y="34.039" width="0.803" height="0.805"/>
	<rect x="47.953" y="34.58" width="0.805" height="0.803"/>
	<rect x="46.342" y="35.041" width="0.805" height="0.803"/>
	<rect x="44.734" y="35.422" width="0.805" height="0.805"/>
	<rect x="55.197" y="32.073" width="0.805" height="0.803"/>
	<rect x="53.586" y="33.1" width="0.805" height="0.805"/>
	<rect x="51.979" y="33.898" width="0.806" height="0.805"/>
	<rect x="50.367" y="34.57" width="0.805" height="0.804"/>
	<rect x="48.758" y="35.146" width="0.803" height="0.803"/>
	<rect x="47.146" y="35.633" width="0.803" height="0.805"/>
	<rect x="45.535" y="36.046" width="0.803" height="0.804"/>
	<rect x="54.395" y="33.455" width="0.803" height="0.805"/>
	<rect x="52.783" y="34.359" width="0.803" height="0.805"/>
	<rect x="51.176" y="35.084" width="0.803" height="0.805"/>
	<rect x="49.564" y="35.699" width="0.803" height="0.803"/>
	<rect x="47.953" y="36.223" width="0.805" height="0.803"/>
	<rect x="46.338" y="36.665" width="0.803" height="0.804"/>
	<rect x="44.73" y="37.034" width="0.805" height="0.804"/>
	<rect x="55.197" y="33.697" width="0.805" height="0.803"/>
	<rect x="53.586" y="34.77" width="0.805" height="0.803"/>
	<rect x="51.979" y="35.576" width="0.806" height="0.804"/>
	<rect x="50.367" y="36.234" width="0.805" height="0.804"/>
	<rect x="48.758" y="36.793" width="0.803" height="0.803"/>
	<rect x="47.146" y="37.268" width="0.803" height="0.803"/>
	<rect x="45.535" y="37.662" width="0.803" height="0.803"/>
	<rect x="16.649" y="25.597" width="0.804" height="0.804"/>
	<rect x="18.257" y="25.114" width="0.803" height="0.803"/>
	<rect x="19.868" y="24.75" width="0.803" height="0.804"/>
	<rect x="21.475" y="24.521" width="0.804" height="0.804"/>
	<rect x="23.082" y="24.456" width="0.803" height="0.803"/>
	<rect x="24.68" y="24.592" width="0.804" height="0.803"/>
	<rect x="26.286" y="24.996" width="0.803" height="0.803"/>
	<rect x="27.884" y="25.86" width="0.804" height="0.804"/>
	<rect x="29.492" y="27.511" width="0.803" height="0.803"/>
	<rect x="31.094" y="28.6" width="0.804" height="0.803"/>
	<rect x="32.693" y="29.364" width="0.803" height="0.804"/>
	<rect x="17.457" y="26.058" width="0.804" height="0.803"/>
	<rect x="19.06" y="25.627" width="0.803" height="0.804"/>
	<rect x="20.671" y="25.333" width="0.804" height="0.803"/>
	<rect x="22.273" y="25.193" width="0.804" height="0.804"/>
	<rect x="23.876" y="25.237" width="0.803" height="0.803"/>
	<rect x="25.483" y="25.527" width="0.803" height="0.803"/>
	<rect x="27.082" y="26.154" width="0.803" height="0.804"/>
	<rect x="28.688" y="27.489" width="0.804" height="0.803"/>
	<rect x="30.291" y="28.956" width="0.804" height="0.803"/>
	<rect x="31.888" y="29.847" width="0.805" height="0.804"/>
	<rect x="16.646" y="27.037" width="0.803" height="0.803"/>
	<rect x="18.252" y="26.545" width="0.804" height="0.803"/>
	<rect x="19.863" y="26.181" width="0.804" height="0.804"/>
	<rect x="21.47" y="25.966" width="0.803" height="0.803"/>
	<rect x="23.077" y="25.926" width="0.804" height="0.803"/>
	<rect x="24.68" y="26.11" width="0.804" height="0.804"/>
	<rect x="26.282" y="26.58" width="0.803" height="0.804"/>
	<rect x="27.884" y="27.511" width="0.804" height="0.803"/>
	<rect x="29.488" y="29.158" width="0.803" height="0.803"/>
	<rect x="31.085" y="30.286" width="0.803" height="0.803"/>
	<rect x="32.693" y="31.032" width="0.803" height="0.803"/>
	<rect x="17.444" y="27.489" width="0.804" height="0.803"/>
	<rect x="19.051" y="27.059" width="0.803" height="0.803"/>
	<rect x="20.658" y="26.769" width="0.803" height="0.803"/>
	<rect x="22.261" y="26.646" width="0.803" height="0.803"/>
	<rect x="23.867" y="26.729" width="0.804" height="0.804"/>
	<rect x="25.475" y="27.077" width="0.803" height="0.803"/>
	<rect x="27.077" y="27.774" width="0.804" height="0.804"/>
	<rect x="28.675" y="29.136" width="0.803" height="0.803"/>
	<rect x="30.282" y="30.62" width="0.804" height="0.803"/>
	<rect x="31.88" y="31.524" width="0.804" height="0.803"/>
	<rect x="16.632" y="28.477" width="0.804" height="0.803"/>
	<rect x="18.239" y="27.977" width="0.804" height="0.803"/>
	<rect x="19.85" y="27.608" width="0.803" height="0.803"/>
	<rect x="21.457" y="27.406" width="0.804" height="0.803"/>
	<rect x="23.064" y="27.397" width="0.803" height="0.803"/>
	<rect x="24.662" y="27.63" width="0.804" height="0.803"/>
	<rect x="26.269" y="28.165" width="0.803" height="0.804"/>
	<rect x="27.867" y="29.158" width="0.804" height="0.803"/>
	<rect x="29.47" y="30.8" width="0.803" height="0.803"/>
	<rect x="31.072" y="31.963" width="0.804" height="0.805"/>
	<rect x="32.684" y="32.709" width="0.803" height="0.805"/>
	<rect x="17.422" y="28.925" width="0.803" height="0.804"/>
	<rect x="19.034" y="28.49" width="0.803" height="0.803"/>
	<rect x="20.645" y="28.2" width="0.803" height="0.804"/>
	<rect x="22.247" y="28.095" width="0.804" height="0.803"/>
	<rect x="23.85" y="28.223" width="0.804" height="0.803"/>
	<rect x="25.461" y="28.626" width="0.804" height="0.803"/>
	<rect x="27.064" y="29.395" width="0.803" height="0.804"/>
	<rect x="28.662" y="30.782" width="0.804" height="0.804"/>
	<rect x="30.269" y="32.284" width="0.803" height="0.803"/>
	<rect x="31.871" y="33.205" width="0.804" height="0.804"/>
	<rect x="16.614" y="29.917" width="0.804" height="0.804"/>
	<rect x="18.221" y="29.408" width="0.804" height="0.804"/>
	<rect x="19.833" y="29.043" width="0.804" height="0.803"/>
	<rect x="21.444" y="28.85" width="0.803" height="0.803"/>
	<rect x="23.046" y="28.863" width="0.803" height="0.804"/>
	<rect x="24.653" y="29.149" width="0.803" height="0.803"/>
	<rect x="26.256" y="29.75" width="0.803" height="0.804"/>
	<rect x="27.854" y="30.804" width="0.804" height="0.804"/>
	<rect x="29.46" y="32.45" width="0.804" height="0.804"/>
	<rect x="31.064" y="33.645" width="0.803" height="0.803"/>
	<rect x="32.674" y="34.383" width="0.805" height="0.803"/>
	<rect x="17.409" y="30.36" width="0.803" height="0.804"/>
	<rect x="19.021" y="29.921" width="0.803" height="0.803"/>
	<rect x="20.632" y="29.636" width="0.803" height="0.803"/>
	<rect x="22.234" y="29.553" width="0.803" height="0.803"/>
	<rect x="23.841" y="29.715" width="0.804" height="0.804"/>
	<rect x="25.448" y="30.176" width="0.804" height="0.804"/>
	<rect x="27.05" y="31.01" width="0.804" height="0.803"/>
	<rect x="28.653" y="32.433" width="0.804" height="0.803"/>
	<rect x="30.259" y="33.956" width="0.805" height="0.804"/>
	<rect x="31.863" y="34.887" width="0.803" height="0.805"/>
	<rect x="16.597" y="31.353" width="0.804" height="0.804"/>
	<rect x="18.208" y="30.834" width="0.804" height="0.804"/>
	<rect x="19.824" y="30.466" width="0.804" height="0.804"/>
	<rect x="21.431" y="30.29" width="0.804" height="0.804"/>
	<rect x="23.033" y="30.334" width="0.803" height="0.804"/>
	<rect x="24.636" y="30.664" width="0.803" height="0.803"/>
	<rect x="26.243" y="31.331" width="0.804" height="0.804"/>
	<rect x="27.845" y="32.459" width="0.803" height="0.805"/>
	<rect x="29.453" y="34.102" width="0.803" height="0.803"/>
	<rect x="31.054" y="35.33" width="0.804" height="0.804"/>
	<rect x="32.662" y="36.059" width="0.803" height="0.805"/>
	<rect x="17.396" y="31.792" width="0.803" height="0.804"/>
	<rect x="19.007" y="31.348" width="0.803" height="0.804"/>
	<rect x="20.619" y="31.067" width="0.803" height="0.803"/>
	<rect x="22.221" y="31.001" width="0.803" height="0.803"/>
	<rect x="23.828" y="31.204" width="0.804" height="0.803"/>
	<rect x="25.435" y="31.726" width="0.804" height="0.803"/>
	<rect x="27.042" y="32.635" width="0.804" height="0.803"/>
	<rect x="28.644" y="34.079" width="0.804" height="0.804"/>
	<rect x="30.247" y="35.625" width="0.804" height="0.803"/>
	<rect x="31.853" y="36.568" width="0.804" height="0.804"/>
	<rect x="16.588" y="32.793" width="0.804" height="0.803"/>
	<rect x="18.199" y="32.266" width="0.804" height="0.804"/>
	<rect x="19.815" y="31.897" width="0.804" height="0.804"/>
	<rect x="21.417" y="31.73" width="0.804" height="0.803"/>
	<rect x="23.024" y="31.796" width="0.803" height="0.804"/>
	<rect x="24.631" y="32.183" width="0.803" height="0.803"/>
	<rect x="26.234" y="32.916" width="0.803" height="0.803"/>
	<rect x="27.836" y="34.105" width="0.804" height="0.804"/>
	<rect x="29.443" y="35.748" width="0.804" height="0.803"/>
	<rect x="31.045" y="37.012" width="0.804" height="0.805"/>
	<rect x="32.657" y="37.732" width="0.804" height="0.803"/>
	<rect x="43.945" y="29.97" width="0.803" height="0.804"/>
	<rect x="42.334" y="30.264" width="0.803" height="0.804"/>
	<rect x="40.723" y="30.448" width="0.803" height="0.804"/>
	<rect x="39.119" y="30.523" width="0.805" height="0.803"/>
	<rect x="37.508" y="30.461" width="0.805" height="0.803"/>
	<rect x="35.902" y="30.272" width="0.803" height="0.804"/>
	<rect x="34.299" y="29.917" width="0.805" height="0.804"/>
	<rect x="43.137" y="30.927" width="0.805" height="0.804"/>
	<rect x="41.531" y="31.164" width="0.803" height="0.803"/>
	<rect x="39.92" y="31.295" width="0.803" height="0.804"/>
	<rect x="38.316" y="31.313" width="0.803" height="0.803"/>
	<rect x="36.701" y="31.195" width="0.803" height="0.803"/>
	<rect x="35.098" y="30.931" width="0.805" height="0.804"/>
	<rect x="33.5" y="30.497" width="0.803" height="0.804"/>
	<rect x="43.945" y="31.568" width="0.803" height="0.803"/>
	<rect x="42.334" y="31.853" width="0.803" height="0.803"/>
	<rect x="40.723" y="32.042" width="0.803" height="0.804"/>
	<rect x="39.115" y="32.121" width="0.805" height="0.803"/>
	<rect x="37.508" y="32.073" width="0.805" height="0.803"/>
	<rect x="35.896" y="31.897" width="0.805" height="0.804"/>
	<rect x="34.295" y="31.563" width="0.803" height="0.804"/>
	<rect x="43.137" y="32.529" width="0.805" height="0.804"/>
	<rect x="41.525" y="32.762" width="0.805" height="0.805"/>
	<rect x="39.92" y="32.895" width="0.803" height="0.803"/>
	<rect x="38.313" y="32.916" width="0.804" height="0.803"/>
	<rect x="36.701" y="32.814" width="0.803" height="0.804"/>
	<rect x="35.094" y="32.568" width="0.803" height="0.804"/>
	<rect x="33.492" y="32.161" width="0.803" height="0.803"/>
	<rect x="43.936" y="33.175" width="0.806" height="0.804"/>
	<rect x="42.33" y="33.451" width="0.803" height="0.804"/>
	<rect x="40.719" y="33.637" width="0.803" height="0.803"/>
	<rect x="39.107" y="33.719" width="0.803" height="0.805"/>
	<rect x="37.5" y="33.684" width="0.803" height="0.805"/>
	<rect x="35.889" y="33.525" width="0.803" height="0.805"/>
	<rect x="34.281" y="33.215" width="0.805" height="0.803"/>
	<rect x="43.129" y="34.127" width="0.803" height="0.805"/>
	<rect x="41.518" y="34.355" width="0.803" height="0.804"/>
	<rect x="39.91" y="34.492" width="0.803" height="0.803"/>
	<rect x="38.303" y="34.521" width="0.805" height="0.805"/>
	<rect x="36.691" y="34.436" width="0.805" height="0.803"/>
	<rect x="35.08" y="34.211" width="0.805" height="0.803"/>
	<rect x="33.479" y="33.824" width="0.804" height="0.804"/>
	<rect x="43.932" y="34.777" width="0.803" height="0.803"/>
	<rect x="42.32" y="35.049" width="0.803" height="0.805"/>
	<rect x="40.709" y="35.234" width="0.803" height="0.803"/>
	<rect x="39.102" y="35.322" width="0.806" height="0.803"/>
	<rect x="37.49" y="35.295" width="0.805" height="0.805"/>
	<rect x="35.879" y="35.154" width="0.805" height="0.804"/>
	<rect x="34.273" y="34.865" width="0.803" height="0.803"/>
	<rect x="43.123" y="35.73" width="0.805" height="0.803"/>
	<rect x="41.512" y="35.949" width="0.805" height="0.804"/>
	<rect x="39.906" y="36.086" width="0.803" height="0.803"/>
	<rect x="38.295" y="36.129" width="0.803" height="0.805"/>
	<rect x="36.684" y="36.055" width="0.803" height="0.805"/>
	<rect x="35.072" y="35.854" width="0.803" height="0.804"/>
	<rect x="33.469" y="35.488" width="0.805" height="0.804"/>
	<rect x="43.928" y="36.38" width="0.803" height="0.804"/>
	<rect x="42.316" y="36.646" width="0.803" height="0.805"/>
	<rect x="40.705" y="36.828" width="0.803" height="0.803"/>
	<rect x="39.094" y="36.924" width="0.803" height="0.805"/>
	<rect x="37.482" y="36.911" width="0.803" height="0.804"/>
	<rect x="35.871" y="36.783" width="0.803" height="0.804"/>
	<rect x="34.26" y="36.521" width="0.803" height="0.804"/>
	<rect x="43.119" y="37.328" width="0.805" height="0.803"/>
	<rect x="41.508" y="37.543" width="0.805" height="0.805"/>
	<rect x="39.896" y="37.684" width="0.805" height="0.803"/>
	<rect x="38.291" y="37.736" width="0.803" height="0.803"/>
	<rect x="36.674" y="37.675" width="0.805" height="0.804"/>
	<rect x="35.063" y="37.495" width="0.806" height="0.804"/>
	<rect x="33.461" y="37.152" width="0.803" height="0.803"/>
	<rect x="43.928" y="37.986" width="0.803" height="0.804"/>
	<rect x="42.316" y="38.246" width="0.803" height="0.803"/>
	<rect x="40.701" y="38.426" width="0.803" height="0.803"/>
	<rect x="39.09" y="38.521" width="0.803" height="0.805"/>
	<rect x="37.482" y="38.518" width="0.803" height="0.805"/>
	<rect x="35.867" y="38.412" width="0.803" height="0.804"/>
	<rect x="34.26" y="38.171" width="0.803" height="0.804"/>
</g>
</svg>
