<?xml version="1.0" encoding="utf-8"?>
<!-- Generator: Adobe Illustrator 14.0.0, SVG Export Plug-In . SVG Version: 6.00 Build 43363)  -->
<!DOCTYPE svg PUBLIC "-//W3C//DTD SVG 1.1//EN" "http://www.w3.org/Graphics/SVG/1.1/DTD/svg11.dtd">
<svg version="1.1" id="Layer_1" xmlns="http://www.w3.org/2000/svg" xmlns:xlink="http://www.w3.org/1999/xlink" x="0px" y="0px"
	 width="64px" height="64px" viewBox="0 0 64 64" enable-background="new 0 0 64 64" xml:space="preserve">
<g>
	<path d="M57.711,39.422c0-0.047,0-0.047,0.047-0.047c0.09-0.088,0.23-0.135,0.366-0.184c0.229-0.135,0.55-0.183,0.828-0.223
		c0.271-0.05,0.502-0.097,0.685-0.144c0.184-0.091,0.278-0.138,0.278-0.185c0.089-0.137,0.089-0.271,0.089-0.367
		c0-0.088,0-0.135-0.089-0.229l0,0l-0.229-0.041c-1.012-0.323-2.021-0.508-2.984-0.596L57.711,39.422z"/>
	<path d="M35.822,41.166c0,0,0.048,0,0.048-0.041c0.094-0.047,0.229-0.143,0.366-0.189c0.277-0.088,0.549-0.135,0.826-0.184
		c0.277-0.041,0.502-0.088,0.691-0.182c0.184-0.043,0.271-0.09,0.271-0.137c0.095-0.185,0.137-0.277,0.137-0.367
		c0-0.094-0.042-0.183-0.09-0.23h-0.047l-0.23-0.088c-1.011-0.277-2.016-0.461-2.979-0.598L35.822,41.166z"/>
	<path d="M10.223,24.005c1.974-0.455,3.948-1.052,5.874-1.696c0.366,0.685,0.78,1.33,1.146,1.974
		c0.455,0.732,0.916,1.465,1.33,2.204c-1.927,0.733-3.854,1.467-5.779,2.063c-0.461-0.779-0.922-1.56-1.336-2.387
		C11.051,25.429,10.637,24.744,10.223,24.005z"/>
	<path d="M32.105,22.262c1.974-0.455,3.9-1.099,5.833-1.743c0.408,0.691,0.779,1.33,1.188,1.974
		c0.461,0.732,0.874,1.472,1.335,2.204c-1.926,0.732-3.858,1.466-5.826,2.063c-0.413-0.78-0.875-1.56-1.336-2.388
		C32.887,23.687,32.478,22.954,32.105,22.262z"/>
	<path d="M32.2,27.268c0.827-0.143,1.606-0.278,2.435-0.509c0.455,0.827,0.916,1.607,1.329,2.388
		c0.455,0.732,0.916,1.513,1.377,2.245c1.927-0.821,3.854-1.602,5.779-2.34c0.414,0.738,0.827,1.472,1.241,2.204
		s0.82,1.471,1.281,2.205c-1.974,0.645-3.899,1.33-5.826,2.156c0.414,0.732,0.828,1.418,1.283,2.109
		c0.461,0.686,1.01,1.465,1.471,2.157c-0.549,0.229-1.01,0.462-1.561,0.687c-1.424,0.688-2.57,1.193-3.445,1.424
		c-0.455,0.094-0.779,0.135-1.051,0.094c-0.096-0.047-0.23-0.094-0.277-0.143c-0.09-0.088-0.184-0.182-0.23-0.271
		c0-0.047,0-0.047,0-0.047c0.047-0.047,0.047-0.094,0.143-0.137c0.047-0.047,0.136-0.094,0.229-0.141
		c0.226-0.091,0.502-0.138,0.78-0.185c0.225-0.041,0.502-0.088,0.732-0.185c0.184-0.047,0.412-0.182,0.549-0.364
		c0.096-0.185,0.137-0.414,0.137-0.599c0-0.184-0.09-0.317-0.184-0.455c-0.047-0.047-0.09-0.094-0.184-0.143
		c-0.414-0.867-0.827-1.695-1.234-2.521c0.963-0.367,1.879-0.828,2.842-1.282c-0.414-0.691-0.828-1.378-1.24-2.068
		c-0.413-0.731-0.821-1.417-1.282-2.157c-0.875,0.325-1.743,0.597-2.659,0.827C33.809,30.571,32.979,28.917,32.2,27.268z"/>
	<path d="M23.756,35.25c-1.927,0.598-3.9,1.33-5.827,2.158c0.414,0.686,0.827,1.418,1.288,2.109
		c0.503,0.686,1.005,1.418,1.466,2.108c-0.55,0.276-1.011,0.461-1.513,0.731c-1.425,0.646-2.571,1.193-3.486,1.425
		c-0.414,0.09-0.78,0.137-1.011,0.09c-0.136-0.041-0.23-0.09-0.319-0.185c-0.095-0.041-0.183-0.137-0.23-0.271
		c-0.597-1.242-1.193-2.522-1.838-3.765c1.886-0.551,3.765-1.33,5.644-2.245c-0.414-0.691-0.827-1.378-1.235-2.068
		c-0.413-0.731-0.827-1.465-1.24-2.157c-1.927,0.692-3.854,1.104-5.779,1.289c-0.095-0.185-0.184-0.365-0.278-0.556
		c-0.732-1.466-1.513-2.979-2.245-4.451c1.879-0.183,3.758-0.455,5.644-0.916c0.407,0.828,0.868,1.607,1.329,2.388
		c0.414,0.732,0.868,1.513,1.33,2.246c1.926-0.828,3.853-1.648,5.779-2.34c0.413,0.733,0.874,1.473,1.241,2.205
		C22.887,33.779,23.342,34.512,23.756,35.25z"/>
	<path d="M21.232,30.842c-0.414-0.732-0.869-1.465-1.282-2.197c-0.414-0.74-0.875-1.473-1.33-2.158
		c1.927-0.691,3.854-1.288,5.826-1.79c-0.46-0.78-0.922-1.513-1.329-2.292c-0.372-0.644-0.78-1.289-1.152-1.885
		c1.105-0.319,2.157-0.549,3.215-0.686c1.193-0.184,1.838-0.23,2.388,0.042c0.502,0.23,0.963,0.78,1.56,2.021
		c0.271,0.597,0.597,1.241,0.869,1.88c-1.832,0.189-3.718,0.508-5.55,0.921c0.414,0.732,0.869,1.513,1.283,2.293
		c0.413,0.733,0.874,1.513,1.288,2.293c1.784-0.319,3.622-0.455,5.413-0.502c0.318,0.644,0.644,1.329,0.963,1.974
		c0.502,1.051,1.051,2.109,1.561,3.162c-1.791-0.137-3.581-0.137-5.372,0.047c0.414,0.779,0.875,1.607,1.377,2.387
		c0.461,0.732,0.963,1.467,1.424,2.246c-2.109,0.047-4.083,0.373-5.921,0.875c-0.455-0.686-0.916-1.33-1.33-2.021
		c-0.502-0.731-0.915-1.515-1.329-2.246c1.927-0.509,3.853-0.916,5.779-1.24c-0.455-0.78-0.868-1.608-1.282-2.387
		c-0.414-0.733-0.827-1.513-1.282-2.341C25.085,29.696,23.158,30.205,21.232,30.842z"/>
	<path d="M43.12,29.052c-0.413-0.733-0.874-1.466-1.282-2.157c-0.461-0.732-0.922-1.466-1.335-2.198
		c1.933-0.691,3.858-1.288,5.785-1.791c-0.414-0.732-0.875-1.513-1.288-2.251c-0.414-0.639-0.779-1.283-1.146-1.927
		c1.104-0.272,2.158-0.502,3.215-0.686c1.146-0.136,1.832-0.183,2.341,0.047c0.55,0.225,1.011,0.78,1.56,2.015
		c0.319,0.645,0.598,1.289,0.916,1.885c-1.879,0.225-3.717,0.502-5.596,0.916c0.455,0.78,0.868,1.513,1.329,2.293
		c0.414,0.78,0.827,1.512,1.282,2.293c1.791-0.272,3.58-0.455,5.371-0.503c0.319,0.686,0.687,1.329,1.012,2.021
		c0.502,1.053,1.004,2.109,1.513,3.162c-1.791-0.184-3.581-0.137-5.323,0c0.412,0.779,0.826,1.606,1.328,2.388
		c0.51,0.732,1.012,1.512,1.426,2.25c-2.063,0.041-4.037,0.414-5.875,0.869c-0.461-0.645-0.916-1.33-1.377-2.016
		c-0.455-0.738-0.869-1.471-1.33-2.203c1.928-0.55,3.854-0.964,5.828-1.289c-0.461-0.78-0.869-1.561-1.283-2.34
		c-0.414-0.78-0.875-1.561-1.289-2.34C46.975,27.905,45.047,28.456,43.12,29.052z"/>
	<path d="M29.766,22.262c2.896-0.455,5.832-1.418,8.722-2.34c2.89-0.963,5.779-1.879,8.533-2.292c1.1-0.184,1.926-0.23,2.569,0.047
		c0.687,0.319,1.194,1.01,1.791,2.245c2.796,5.969,5.826,11.795,8.716,17.711c0.049,0.047,0.137,0.094,0.185,0.141
		c0.089,0.138,0.184,0.32,0.184,0.502c0,0.185-0.048,0.367-0.137,0.552c-0.142,0.229-0.366,0.323-0.55,0.414
		c-0.229,0.047-0.508,0.094-0.738,0.135c-0.318,0.097-0.55,0.144-0.779,0.188c-0.089,0.041-0.184,0.09-0.229,0.138
		c-0.089,0.047-0.138,0.088-0.138,0.135c0,0.05-0.047,0.097-0.088,0.138h-0.048c-0.136,0.047-0.229,0.047-0.319-0.088l-1.24-2.525
		c-6.057-0.549-11.286,1.881-15.004,3.623c-1.377,0.645-2.57,1.193-3.533,1.424c-0.461,0.137-0.875,0.184-1.241,0.09
		c-0.183-0.041-0.319-0.137-0.455-0.225c-0.142-0.096-0.276-0.277-0.366-0.461c-0.412-0.875-0.873-1.791-1.287-2.707
		c-6.058-0.508-11.288,1.928-14.958,3.623c-1.424,0.645-2.617,1.24-3.533,1.471c-0.461,0.137-0.916,0.184-1.241,0.088
		c-0.184-0.039-0.366-0.135-0.502-0.23c-0.137-0.135-0.278-0.271-0.366-0.453c-1.472-3.215-3.073-6.336-4.681-9.496
		c-1.607-3.121-3.073-6.381-4.774-9.456c-0.089-0.095-0.366-0.32,0.23-0.32c4.036,0,8.125-1.335,12.113-2.665
		c2.938-0.916,5.78-1.879,8.533-2.246c1.105-0.183,1.927-0.277,2.618,0.048c0.686,0.319,1.146,1.004,1.743,2.246
		C29.582,21.896,29.677,22.079,29.766,22.262z"/>
	<path fill="#FFFFFF" d="M10.223,24.005c1.974-0.455,3.948-1.052,5.874-1.696c0.366,0.685,0.78,1.33,1.146,1.974
		c0.455,0.732,0.916,1.465,1.33,2.204c-1.927,0.733-3.854,1.467-5.779,2.063c-0.461-0.779-0.922-1.56-1.336-2.387
		C11.051,25.429,10.637,24.744,10.223,24.005z"/>
	<path fill="#FFFFFF" d="M23.756,35.25c-1.927,0.598-3.9,1.33-5.827,2.158c0.414,0.686,0.827,1.418,1.288,2.109
		c0.503,0.686,1.005,1.418,1.466,2.108c-0.55,0.276-1.011,0.461-1.513,0.731c-1.425,0.646-2.571,1.193-3.486,1.425
		c-0.414,0.09-0.78,0.137-1.011,0.09c-0.136-0.041-0.23-0.09-0.319-0.185c-0.095-0.041-0.183-0.137-0.23-0.271
		c-0.597-1.242-1.193-2.522-1.838-3.765c1.886-0.551,3.765-1.33,5.644-2.245c-0.414-0.691-0.827-1.378-1.235-2.068
		c-0.413-0.731-0.827-1.465-1.24-2.157c-1.927,0.692-3.854,1.104-5.779,1.289c-0.095-0.185-0.184-0.365-0.278-0.556
		c-0.732-1.466-1.513-2.979-2.245-4.451c1.879-0.183,3.758-0.455,5.644-0.916c0.407,0.828,0.868,1.607,1.329,2.388
		c0.414,0.732,0.868,1.513,1.33,2.246c1.926-0.828,3.853-1.648,5.779-2.34c0.413,0.733,0.874,1.473,1.241,2.205
		C22.887,33.779,23.342,34.512,23.756,35.25z"/>
	<path fill="#FFFFFF" d="M21.232,30.842c-0.414-0.732-0.869-1.465-1.282-2.197c-0.414-0.74-0.875-1.473-1.33-2.158
		c1.927-0.691,3.854-1.288,5.826-1.79c-0.46-0.78-0.922-1.513-1.329-2.292c-0.372-0.644-0.78-1.289-1.152-1.885
		c1.105-0.319,2.157-0.549,3.215-0.686c1.193-0.184,1.838-0.23,2.388,0.042c0.502,0.23,0.963,0.78,1.56,2.021
		c0.271,0.597,0.597,1.241,0.869,1.88c-1.832,0.189-3.718,0.508-5.55,0.921c0.414,0.732,0.869,1.513,1.283,2.293
		c0.413,0.733,0.874,1.513,1.288,2.293c1.784-0.319,3.622-0.455,5.413-0.502c0.318,0.644,0.644,1.329,0.963,1.974
		c0.502,1.051,1.051,2.109,1.561,3.162c-1.791-0.137-3.581-0.137-5.372,0.047c0.414,0.779,0.875,1.607,1.377,2.387
		c0.461,0.732,0.963,1.467,1.424,2.246c-2.109,0.047-4.083,0.373-5.921,0.875c-0.455-0.686-0.916-1.33-1.33-2.021
		c-0.502-0.731-0.915-1.515-1.329-2.246c1.927-0.509,3.853-0.916,5.779-1.24c-0.455-0.78-0.868-1.608-1.282-2.387
		c-0.414-0.733-0.827-1.513-1.282-2.341C25.085,29.696,23.158,30.205,21.232,30.842z"/>
	<path fill="#FFFFFF" d="M57.711,39.422c0-0.047,0-0.047,0.047-0.047c0.09-0.088,0.23-0.135,0.366-0.184
		c0.229-0.135,0.55-0.183,0.828-0.223c0.271-0.05,0.502-0.097,0.685-0.144c0.184-0.091,0.278-0.138,0.278-0.185
		c0.089-0.137,0.089-0.271,0.089-0.367c0-0.088,0-0.135-0.089-0.229l0,0l-0.229-0.041c-1.012-0.323-2.021-0.508-2.984-0.596
		L57.711,39.422z"/>
	<path fill="#FFFFFF" d="M35.822,41.166c0,0,0.048,0,0.048-0.041c0.094-0.047,0.229-0.143,0.366-0.189
		c0.277-0.088,0.549-0.135,0.826-0.184c0.277-0.041,0.502-0.088,0.691-0.182c0.184-0.043,0.271-0.09,0.271-0.137
		c0.095-0.185,0.137-0.277,0.137-0.367c0-0.094-0.042-0.183-0.09-0.23h-0.047l-0.23-0.088c-1.011-0.277-2.016-0.461-2.979-0.598
		L35.822,41.166z"/>
	<path fill="#FFFFFF" d="M32.105,22.262c1.974-0.455,3.9-1.099,5.833-1.743c0.408,0.691,0.779,1.33,1.188,1.974
		c0.461,0.732,0.874,1.472,1.335,2.204c-1.926,0.732-3.858,1.466-5.826,2.063c-0.413-0.78-0.875-1.56-1.336-2.388
		C32.887,23.687,32.478,22.954,32.105,22.262z"/>
	<path fill="#FFFFFF" d="M32.2,27.268c0.827-0.143,1.606-0.278,2.435-0.509c0.455,0.827,0.916,1.607,1.329,2.388
		c0.455,0.732,0.916,1.513,1.377,2.245c1.927-0.821,3.854-1.602,5.779-2.34c0.414,0.738,0.827,1.472,1.241,2.204
		s0.82,1.471,1.281,2.205c-1.974,0.645-3.899,1.33-5.826,2.156c0.414,0.732,0.828,1.418,1.283,2.109
		c0.461,0.686,1.01,1.465,1.471,2.157c-0.549,0.229-1.01,0.462-1.561,0.687c-1.424,0.688-2.57,1.193-3.445,1.424
		c-0.455,0.094-0.779,0.135-1.051,0.094c-0.096-0.047-0.23-0.094-0.277-0.143c-0.09-0.088-0.184-0.182-0.23-0.271
		c0-0.047,0-0.047,0-0.047c0.047-0.047,0.047-0.094,0.143-0.137c0.047-0.047,0.136-0.094,0.229-0.141
		c0.226-0.091,0.502-0.138,0.78-0.185c0.225-0.041,0.502-0.088,0.732-0.185c0.184-0.047,0.412-0.182,0.549-0.364
		c0.096-0.185,0.137-0.414,0.137-0.599c0-0.184-0.09-0.317-0.184-0.455c-0.047-0.047-0.09-0.094-0.184-0.143
		c-0.414-0.867-0.827-1.695-1.234-2.521c0.963-0.367,1.879-0.828,2.842-1.282c-0.414-0.691-0.828-1.378-1.24-2.068
		c-0.413-0.731-0.821-1.417-1.282-2.157c-0.875,0.325-1.743,0.597-2.659,0.827C33.809,30.571,32.979,28.917,32.2,27.268z"/>
	<path fill="#FFFFFF" d="M43.12,29.052c-0.413-0.733-0.874-1.466-1.282-2.157c-0.461-0.732-0.922-1.466-1.335-2.198
		c1.933-0.691,3.858-1.288,5.785-1.791c-0.414-0.732-0.875-1.513-1.288-2.251c-0.414-0.639-0.779-1.283-1.146-1.927
		c1.104-0.272,2.158-0.502,3.215-0.686c1.146-0.136,1.832-0.183,2.341,0.047c0.55,0.225,1.011,0.78,1.56,2.015
		c0.319,0.645,0.598,1.289,0.916,1.885c-1.879,0.225-3.717,0.502-5.596,0.916c0.455,0.78,0.868,1.513,1.329,2.293
		c0.414,0.78,0.827,1.512,1.282,2.293c1.791-0.272,3.58-0.455,5.371-0.503c0.319,0.686,0.687,1.329,1.012,2.021
		c0.502,1.053,1.004,2.109,1.513,3.162c-1.791-0.184-3.581-0.137-5.323,0c0.412,0.779,0.826,1.606,1.328,2.388
		c0.51,0.732,1.012,1.512,1.426,2.25c-2.063,0.041-4.037,0.414-5.875,0.869c-0.461-0.645-0.916-1.33-1.377-2.016
		c-0.455-0.738-0.869-1.471-1.33-2.203c1.928-0.55,3.854-0.964,5.828-1.289c-0.461-0.78-0.869-1.561-1.283-2.34
		c-0.414-0.78-0.875-1.561-1.289-2.34C46.975,27.905,45.047,28.456,43.12,29.052z"/>
</g>
</svg>
