<?xml version="1.0" encoding="utf-8"?>
<!-- Generator: Adobe Illustrator 14.0.0, SVG Export Plug-In . SVG Version: 6.00 Build 43363)  -->
<!DOCTYPE svg PUBLIC "-//W3C//DTD SVG 1.1//EN" "http://www.w3.org/Graphics/SVG/1.1/DTD/svg11.dtd">
<svg version="1.1" id="Layer_1" xmlns="http://www.w3.org/2000/svg" xmlns:xlink="http://www.w3.org/1999/xlink" x="0px" y="0px"
	 width="64px" height="64px" viewBox="0 0 64 64" enable-background="new 0 0 64 64" xml:space="preserve">
<g>
	
		<linearGradient id="SVGID_1_" gradientUnits="userSpaceOnUse" x1="-4489.4404" y1="2277.9063" x2="-4482.1768" y2="2277.9063" gradientTransform="matrix(-0.9989 0.0471 0.0471 0.9989 -4565.6025 -2015.2568)">
		<stop  offset="0" style="stop-color:#641C0C"/>
		<stop  offset="0.0213" style="stop-color:#68210F"/>
		<stop  offset="0.168" style="stop-color:#84421C"/>
		<stop  offset="0.3008" style="stop-color:#9A5B24"/>
		<stop  offset="0.4142" style="stop-color:#A86B28"/>
		<stop  offset="0.4945" style="stop-color:#AD7029"/>
		<stop  offset="0.5774" style="stop-color:#A86B28"/>
		<stop  offset="0.6902" style="stop-color:#9B5C24"/>
		<stop  offset="0.8202" style="stop-color:#87451D"/>
		<stop  offset="0.962" style="stop-color:#6C2511"/>
		<stop  offset="1" style="stop-color:#641C0C"/>
	</linearGradient>
	<path fill="url(#SVGID_1_)" stroke="#7D3118" stroke-width="0.5" d="M18.961,49.557c-0.076,2.191,6.337,0.111,7.4,2.789
		c-0.613-2.336-1.03-3.648-1.628-5.865c-0.921-2.43-4.297,1.021-5.155-1.139L18.961,49.557L18.961,49.557z"/>
	
		<linearGradient id="SVGID_2_" gradientUnits="userSpaceOnUse" x1="-4485.1738" y1="2277.9268" x2="-4482.1812" y2="2277.9268" gradientTransform="matrix(-0.9989 0.0471 0.0471 0.9989 -4565.6025 -2015.2568)">
		<stop  offset="0" style="stop-color:#641C0C"/>
		<stop  offset="0.0213" style="stop-color:#68210F"/>
		<stop  offset="0.168" style="stop-color:#84421C"/>
		<stop  offset="0.3008" style="stop-color:#9A5B24"/>
		<stop  offset="0.4142" style="stop-color:#A86B28"/>
		<stop  offset="0.4945" style="stop-color:#AD7029"/>
		<stop  offset="0.5774" style="stop-color:#A86B28"/>
		<stop  offset="0.6902" style="stop-color:#9B5C24"/>
		<stop  offset="0.8202" style="stop-color:#87451D"/>
		<stop  offset="0.962" style="stop-color:#6C2511"/>
		<stop  offset="1" style="stop-color:#641C0C"/>
	</linearGradient>
	<path fill="url(#SVGID_2_)" stroke="#7D3118" stroke-width="0.5" d="M18.962,49.557c0.052-0.447,1.764-0.078,2.259,0.285
		c0.279,0.203,0.832,0.434,0.748,0.084c-0.295-1.064-2.512-2.303-2.734-2.047C18.982,48.17,18.938,49.16,18.962,49.557
		L18.962,49.557z"/>
	
		<linearGradient id="SVGID_3_" gradientUnits="userSpaceOnUse" x1="-4501.4336" y1="2277.3125" x2="-4494.3198" y2="2277.3125" gradientTransform="matrix(-0.9989 0.0471 0.0471 0.9989 -4565.6025 -2015.2568)">
		<stop  offset="0" style="stop-color:#641C0C"/>
		<stop  offset="0.0213" style="stop-color:#68210F"/>
		<stop  offset="0.168" style="stop-color:#84421C"/>
		<stop  offset="0.3008" style="stop-color:#9A5B24"/>
		<stop  offset="0.4142" style="stop-color:#A86B28"/>
		<stop  offset="0.4945" style="stop-color:#AD7029"/>
		<stop  offset="0.5774" style="stop-color:#A86B28"/>
		<stop  offset="0.6902" style="stop-color:#9B5C24"/>
		<stop  offset="0.8202" style="stop-color:#87451D"/>
		<stop  offset="0.962" style="stop-color:#6C2511"/>
		<stop  offset="1" style="stop-color:#641C0C"/>
	</linearGradient>
	<path fill="url(#SVGID_3_)" stroke="#7D3118" stroke-width="0.5" d="M34.604,47.656c-1.791,0.498-2.165-1.52-2.911-1.268
		c-0.594,0.42-0.635,1.108-0.646,1.752c0.303-1.229,1.82,1.047,3.625,0.121c1.307-0.671,2.428-1,3.537,0.735
		c-0.607-1.763-2.051-1.908-3.359-1.422C34.773,47.605,34.691,47.633,34.604,47.656L34.604,47.656z"/>
	
		<linearGradient id="SVGID_4_" gradientUnits="userSpaceOnUse" x1="-4495.4043" y1="2277.0742" x2="-4492.5674" y2="2277.0742" gradientTransform="matrix(-0.9989 0.0471 0.0471 0.9989 -4565.6025 -2015.2568)">
		<stop  offset="0" style="stop-color:#641C0C"/>
		<stop  offset="0.0213" style="stop-color:#68210F"/>
		<stop  offset="0.168" style="stop-color:#84421C"/>
		<stop  offset="0.3008" style="stop-color:#9A5B24"/>
		<stop  offset="0.4142" style="stop-color:#A86B28"/>
		<stop  offset="0.4945" style="stop-color:#AD7029"/>
		<stop  offset="0.5774" style="stop-color:#A86B28"/>
		<stop  offset="0.6902" style="stop-color:#9B5C24"/>
		<stop  offset="0.8202" style="stop-color:#87451D"/>
		<stop  offset="0.962" style="stop-color:#6C2511"/>
		<stop  offset="1" style="stop-color:#641C0C"/>
	</linearGradient>
	<path fill="url(#SVGID_4_)" stroke="#7D3118" stroke-width="0.5" d="M30.904,46.348c0.311-0.01,0.875-0.125,1.148,0.082
		c-0.908-0.522-0.898,2.461-1.367,2.502c-0.635,0.205-1.244-0.938-1.424-1.459C29.837,48.066,29.876,46.391,30.904,46.348
		L30.904,46.348z"/>
	
		<linearGradient id="SVGID_5_" gradientUnits="userSpaceOnUse" x1="-4500.2695" y1="2281.0254" x2="-4495.3916" y2="2281.0254" gradientTransform="matrix(-0.9989 0.0471 0.0471 0.9989 -4565.6025 -2015.2568)">
		<stop  offset="0" style="stop-color:#641C0C"/>
		<stop  offset="0.0213" style="stop-color:#68210F"/>
		<stop  offset="0.168" style="stop-color:#84421C"/>
		<stop  offset="0.3008" style="stop-color:#9A5B24"/>
		<stop  offset="0.4142" style="stop-color:#A86B28"/>
		<stop  offset="0.4945" style="stop-color:#AD7029"/>
		<stop  offset="0.5774" style="stop-color:#A86B28"/>
		<stop  offset="0.6902" style="stop-color:#9B5C24"/>
		<stop  offset="0.8202" style="stop-color:#87451D"/>
		<stop  offset="0.962" style="stop-color:#6C2511"/>
		<stop  offset="1" style="stop-color:#641C0C"/>
	</linearGradient>
	<path fill="url(#SVGID_5_)" stroke="#7D3118" stroke-width="0.5" d="M37.227,52.877c-1.949-1.801-3.797,0.363-4.19-0.443
		c-0.47-0.729-0.702-1.676-0.831-2.486c0.4,1.109,1.152,1.66,2.055,1.494C35.789,51.162,36.252,51.883,37.227,52.877L37.227,52.877z
		"/>
	
		<linearGradient id="SVGID_6_" gradientUnits="userSpaceOnUse" x1="-4496.1045" y1="2278.9297" x2="-4488.0918" y2="2278.9297" gradientTransform="matrix(-0.9989 0.0471 0.0471 0.9989 -4565.6025 -2015.2568)">
		<stop  offset="0" style="stop-color:#641C0C"/>
		<stop  offset="0.0213" style="stop-color:#68210F"/>
		<stop  offset="0.168" style="stop-color:#84421C"/>
		<stop  offset="0.3008" style="stop-color:#9A5B24"/>
		<stop  offset="0.4142" style="stop-color:#A86B28"/>
		<stop  offset="0.4945" style="stop-color:#AD7029"/>
		<stop  offset="0.5774" style="stop-color:#A86B28"/>
		<stop  offset="0.6902" style="stop-color:#9B5C24"/>
		<stop  offset="0.8202" style="stop-color:#87451D"/>
		<stop  offset="0.962" style="stop-color:#6C2511"/>
		<stop  offset="1" style="stop-color:#641C0C"/>
	</linearGradient>
	<path fill="url(#SVGID_6_)" stroke="#7D3118" stroke-width="0.5" d="M32.205,49.947c0.109,0.465,0.564,2.029,0.831,2.486
		c-1.709-1.761-3.483,1.264-4.741,0.241c-0.686-0.555-1.639,0.384-1.935-0.338c-0.562-1.887-1.194-3.873-1.626-5.856
		c0.571,1.137,1.542-0.279,2.196,0.453c0.837,0.934,1.914-0.199,2.486,0.729c0.51,0.854,1.08,1.604,1.418,1.142
		c-0.385,0.78-1.621,0.502-2.295,0.875c-0.189,0.104-0.387,0.403-0.574,0.487c0.512-0.017,0.836-0.5,1.506-0.263
		C30.509,50.273,31.824,49.268,32.205,49.947L32.205,49.947z"/>
	
		<linearGradient id="SVGID_7_" gradientUnits="userSpaceOnUse" x1="-4485.1465" y1="2273.9316" x2="-4474.415" y2="2273.9316" gradientTransform="matrix(-0.9989 0.0471 0.0471 0.9989 -4565.6025 -2015.2568)">
		<stop  offset="0" style="stop-color:#641C0C"/>
		<stop  offset="0.0213" style="stop-color:#68210F"/>
		<stop  offset="0.168" style="stop-color:#84421C"/>
		<stop  offset="0.3008" style="stop-color:#9A5B24"/>
		<stop  offset="0.4142" style="stop-color:#A86B28"/>
		<stop  offset="0.4945" style="stop-color:#AD7029"/>
		<stop  offset="0.5774" style="stop-color:#A86B28"/>
		<stop  offset="0.6902" style="stop-color:#9B5C24"/>
		<stop  offset="0.8202" style="stop-color:#87451D"/>
		<stop  offset="0.962" style="stop-color:#6C2511"/>
		<stop  offset="1" style="stop-color:#641C0C"/>
	</linearGradient>
	<path fill="url(#SVGID_7_)" stroke="#7D3118" stroke-width="0.5" d="M19.424,48.77c1.482-0.104,2.399,0.701,2.52,1.078
		c-0.422-1.652-0.718-3.158-0.985-4.627c-0.544-1.418-0.403-2.328-3.726-3.443c-2.074-0.694-4.117-1.405-5.754-1.307
		c-1.268,0.076-0.631,1.246,0.555,2.852c1.225,1.658,2.469,4.716,3.946,5.646C17.043,49.352,18.346,48.844,19.424,48.77
		L19.424,48.77z"/>
	
		<linearGradient id="SVGID_8_" gradientUnits="userSpaceOnUse" x1="-4519.374" y1="2264.167" x2="-4466.0986" y2="2264.167" gradientTransform="matrix(-0.9989 0.0471 0.0471 0.9989 -4565.6025 -2015.2568)">
		<stop  offset="0" style="stop-color:#641C0C"/>
		<stop  offset="0.0213" style="stop-color:#68210F"/>
		<stop  offset="0.168" style="stop-color:#84421C"/>
		<stop  offset="0.3008" style="stop-color:#9A5B24"/>
		<stop  offset="0.4142" style="stop-color:#A86B28"/>
		<stop  offset="0.4945" style="stop-color:#AD7029"/>
		<stop  offset="0.5774" style="stop-color:#A86B28"/>
		<stop  offset="0.6902" style="stop-color:#9B5C24"/>
		<stop  offset="0.8202" style="stop-color:#87451D"/>
		<stop  offset="0.962" style="stop-color:#6C2511"/>
		<stop  offset="1" style="stop-color:#641C0C"/>
	</linearGradient>
	<path fill="url(#SVGID_8_)" stroke="#7D3118" stroke-width="0.5" d="M1.995,31.186c9.688,2.324,17.878,4.361,25.784,6.289
		c4.506,1.098,10.077,3.951,15.727,4.769c5.117,0.739,8.246,4.465,8.346,3.315c-0.02-2.205,3.123-6.035,3.691-8.643
		c0.93-2.213-12.178-1.844-26.389-5.57c-13.189-3.458-26.011-8.819-26.02-7.04C2.566,26.913,2.063,28.633,1.995,31.186L1.995,31.186
		z"/>
	
		<linearGradient id="SVGID_9_" gradientUnits="userSpaceOnUse" x1="-4518.144" y1="2249.666" x2="-4510.8799" y2="2249.666" gradientTransform="matrix(-0.9989 0.0471 0.0471 0.9989 -4565.6025 -2015.2568)">
		<stop  offset="0" style="stop-color:#641C0C"/>
		<stop  offset="0.0213" style="stop-color:#68210F"/>
		<stop  offset="0.168" style="stop-color:#84421C"/>
		<stop  offset="0.3008" style="stop-color:#9A5B24"/>
		<stop  offset="0.4142" style="stop-color:#A86B28"/>
		<stop  offset="0.4945" style="stop-color:#AD7029"/>
		<stop  offset="0.5774" style="stop-color:#A86B28"/>
		<stop  offset="0.6902" style="stop-color:#9B5C24"/>
		<stop  offset="0.8202" style="stop-color:#87451D"/>
		<stop  offset="0.962" style="stop-color:#6C2511"/>
		<stop  offset="1" style="stop-color:#641C0C"/>
	</linearGradient>
	<path fill="url(#SVGID_9_)" stroke="#7D3118" stroke-width="0.5" d="M53.502,18.608c0.076-2.191-6.336-0.111-7.4-2.79
		c0.613,2.336,1.031,3.648,1.629,5.865c0.92,2.431,4.297-1.018,5.154,1.139L53.502,18.608L53.502,18.608z"/>
	
		<linearGradient id="SVGID_10_" gradientUnits="userSpaceOnUse" x1="-4518.1406" y1="2249.6465" x2="-4515.1494" y2="2249.6465" gradientTransform="matrix(-0.9989 0.0471 0.0471 0.9989 -4565.6025 -2015.2568)">
		<stop  offset="0" style="stop-color:#641C0C"/>
		<stop  offset="0.0213" style="stop-color:#68210F"/>
		<stop  offset="0.168" style="stop-color:#84421C"/>
		<stop  offset="0.3008" style="stop-color:#9A5B24"/>
		<stop  offset="0.4142" style="stop-color:#A86B28"/>
		<stop  offset="0.4945" style="stop-color:#AD7029"/>
		<stop  offset="0.5774" style="stop-color:#A86B28"/>
		<stop  offset="0.6902" style="stop-color:#9B5C24"/>
		<stop  offset="0.8202" style="stop-color:#87451D"/>
		<stop  offset="0.962" style="stop-color:#6C2511"/>
		<stop  offset="1" style="stop-color:#641C0C"/>
	</linearGradient>
	<path fill="url(#SVGID_10_)" stroke="#7D3118" stroke-width="0.5" d="M53.502,18.608c-0.051,0.447-1.764,0.078-2.26-0.285
		c-0.279-0.203-0.83-0.435-0.746-0.085c0.293,1.064,2.51,2.304,2.732,2.047C53.48,19.994,53.525,19.003,53.502,18.608L53.502,18.608
		z"/>
	
		<linearGradient id="SVGID_11_" gradientUnits="userSpaceOnUse" x1="-4506.0005" y1="2250.2598" x2="-4498.8887" y2="2250.2598" gradientTransform="matrix(-0.9989 0.0471 0.0471 0.9989 -4565.6025 -2015.2568)">
		<stop  offset="0" style="stop-color:#641C0C"/>
		<stop  offset="0.0213" style="stop-color:#68210F"/>
		<stop  offset="0.168" style="stop-color:#84421C"/>
		<stop  offset="0.3008" style="stop-color:#9A5B24"/>
		<stop  offset="0.4142" style="stop-color:#A86B28"/>
		<stop  offset="0.4945" style="stop-color:#AD7029"/>
		<stop  offset="0.5774" style="stop-color:#A86B28"/>
		<stop  offset="0.6902" style="stop-color:#9B5C24"/>
		<stop  offset="0.8202" style="stop-color:#87451D"/>
		<stop  offset="0.962" style="stop-color:#6C2511"/>
		<stop  offset="1" style="stop-color:#641C0C"/>
	</linearGradient>
	<path fill="url(#SVGID_11_)" stroke="#7D3118" stroke-width="0.5" d="M37.859,20.507c1.791-0.497,2.166,1.52,2.91,1.269
		c0.594-0.421,0.635-1.109,0.646-1.754c-0.302,1.229-1.817-1.046-3.623-0.121c-1.31,0.672-2.431,1.002-3.537-0.734
		c0.604,1.761,2.052,1.908,3.356,1.421C37.689,20.558,37.771,20.532,37.859,20.507L37.859,20.507z"/>
	
		<linearGradient id="SVGID_12_" gradientUnits="userSpaceOnUse" x1="-4507.7539" y1="2250.498" x2="-4504.917" y2="2250.498" gradientTransform="matrix(-0.9989 0.0471 0.0471 0.9989 -4565.6025 -2015.2568)">
		<stop  offset="0" style="stop-color:#641C0C"/>
		<stop  offset="0.0213" style="stop-color:#68210F"/>
		<stop  offset="0.168" style="stop-color:#84421C"/>
		<stop  offset="0.3008" style="stop-color:#9A5B24"/>
		<stop  offset="0.4142" style="stop-color:#A86B28"/>
		<stop  offset="0.4945" style="stop-color:#AD7029"/>
		<stop  offset="0.5774" style="stop-color:#A86B28"/>
		<stop  offset="0.6902" style="stop-color:#9B5C24"/>
		<stop  offset="0.8202" style="stop-color:#87451D"/>
		<stop  offset="0.962" style="stop-color:#6C2511"/>
		<stop  offset="1" style="stop-color:#641C0C"/>
	</linearGradient>
	<path fill="url(#SVGID_12_)" stroke="#7D3118" stroke-width="0.5" d="M41.561,21.817c-0.313,0.01-0.875,0.125-1.149-0.083
		c0.909,0.524,0.897-2.461,1.366-2.502c0.636-0.204,1.244,0.938,1.425,1.46C42.625,20.098,42.586,21.773,41.561,21.817
		L41.561,21.817z"/>
	
		<linearGradient id="SVGID_13_" gradientUnits="userSpaceOnUse" x1="-4504.9307" y1="2246.5469" x2="-4500.0518" y2="2246.5469" gradientTransform="matrix(-0.9989 0.0471 0.0471 0.9989 -4565.6025 -2015.2568)">
		<stop  offset="0" style="stop-color:#641C0C"/>
		<stop  offset="0.0213" style="stop-color:#68210F"/>
		<stop  offset="0.168" style="stop-color:#84421C"/>
		<stop  offset="0.3008" style="stop-color:#9A5B24"/>
		<stop  offset="0.4142" style="stop-color:#A86B28"/>
		<stop  offset="0.4945" style="stop-color:#AD7029"/>
		<stop  offset="0.5774" style="stop-color:#A86B28"/>
		<stop  offset="0.6902" style="stop-color:#9B5C24"/>
		<stop  offset="0.8202" style="stop-color:#87451D"/>
		<stop  offset="0.962" style="stop-color:#6C2511"/>
		<stop  offset="1" style="stop-color:#641C0C"/>
	</linearGradient>
	<path fill="url(#SVGID_13_)" stroke="#7D3118" stroke-width="0.5" d="M35.236,15.288c1.949,1.801,3.797-0.364,4.193,0.441
		c0.467,0.729,0.7,1.677,0.829,2.487c-0.401-1.109-1.153-1.659-2.057-1.493C36.674,17.002,36.211,16.282,35.236,15.288
		L35.236,15.288z"/>
	
		<linearGradient id="SVGID_14_" gradientUnits="userSpaceOnUse" x1="-4512.2305" y1="2248.6416" x2="-4504.2178" y2="2248.6416" gradientTransform="matrix(-0.9989 0.0471 0.0471 0.9989 -4565.6025 -2015.2568)">
		<stop  offset="0" style="stop-color:#641C0C"/>
		<stop  offset="0.0213" style="stop-color:#68210F"/>
		<stop  offset="0.168" style="stop-color:#84421C"/>
		<stop  offset="0.3008" style="stop-color:#9A5B24"/>
		<stop  offset="0.4142" style="stop-color:#A86B28"/>
		<stop  offset="0.4945" style="stop-color:#AD7029"/>
		<stop  offset="0.5774" style="stop-color:#A86B28"/>
		<stop  offset="0.6902" style="stop-color:#9B5C24"/>
		<stop  offset="0.8202" style="stop-color:#87451D"/>
		<stop  offset="0.962" style="stop-color:#6C2511"/>
		<stop  offset="1" style="stop-color:#641C0C"/>
	</linearGradient>
	<path fill="url(#SVGID_14_)" stroke="#7D3118" stroke-width="0.5" d="M40.26,18.216c-0.111-0.465-0.564-2.028-0.832-2.486
		c1.709,1.761,3.482-1.264,4.742-0.242c0.684,0.555,1.639-0.383,1.934,0.339c0.562,1.887,1.195,3.872,1.627,5.856
		c-0.571-1.137-1.543,0.279-2.196-0.452c-0.839-0.936-1.912,0.199-2.486-0.731c-0.508-0.855-1.077-1.604-1.418-1.142
		c0.386-0.779,1.621-0.502,2.295-0.873c0.188-0.104,0.388-0.405,0.574-0.488c-0.513,0.015-0.834,0.499-1.504,0.262
		C41.953,17.89,40.639,18.897,40.26,18.216L40.26,18.216z"/>
	
		<linearGradient id="SVGID_15_" gradientUnits="userSpaceOnUse" x1="-4523.438" y1="2253.1055" x2="-4515.1748" y2="2253.1055" gradientTransform="matrix(-0.9989 0.0471 0.0471 0.9989 -4565.6025 -2015.2568)">
		<stop  offset="0" style="stop-color:#641C0C"/>
		<stop  offset="0.0213" style="stop-color:#68210F"/>
		<stop  offset="0.168" style="stop-color:#84421C"/>
		<stop  offset="0.3008" style="stop-color:#9A5B24"/>
		<stop  offset="0.4142" style="stop-color:#A86B28"/>
		<stop  offset="0.4945" style="stop-color:#AD7029"/>
		<stop  offset="0.5774" style="stop-color:#A86B28"/>
		<stop  offset="0.6902" style="stop-color:#9B5C24"/>
		<stop  offset="0.8202" style="stop-color:#87451D"/>
		<stop  offset="0.962" style="stop-color:#6C2511"/>
		<stop  offset="1" style="stop-color:#641C0C"/>
	</linearGradient>
	<path fill="url(#SVGID_15_)" stroke="#7D3118" stroke-width="0.5" d="M50.52,18.316c0.422,1.652,0.719,3.159,0.984,4.628
		c0.732,3.852,9.023,5.278,7.436,2.072c-0.768-1.55-1.014-3.26-1.362-4.725c-0.14-1.116-1.095-1.013-2.229-0.882
		C53.625,19.607,50.904,19.523,50.52,18.316L50.52,18.316z"/>
	
		<linearGradient id="SVGID_16_" gradientUnits="userSpaceOnUse" x1="-4523.9312" y1="2257.0693" x2="-4466.0957" y2="2257.0693" gradientTransform="matrix(-0.9989 0.0471 0.0471 0.9989 -4565.6025 -2015.2568)">
		<stop  offset="0" style="stop-color:#C1812B"/>
		<stop  offset="0.0889" style="stop-color:#CE983D"/>
		<stop  offset="0.2172" style="stop-color:#E0B85D"/>
		<stop  offset="0.3355" style="stop-color:#EFD277"/>
		<stop  offset="0.4391" style="stop-color:#FAE387"/>
		<stop  offset="0.5165" style="stop-color:#FFEA8D"/>
		<stop  offset="0.5883" style="stop-color:#FAE387"/>
		<stop  offset="0.6865" style="stop-color:#EFD176"/>
		<stop  offset="0.7998" style="stop-color:#DFB75B"/>
		<stop  offset="0.9236" style="stop-color:#CD953B"/>
		<stop  offset="1" style="stop-color:#C1812B"/>
	</linearGradient>
	<path fill="url(#SVGID_16_)" stroke="#7D3118" stroke-width="0.5" d="M57.576,20.292c-0.387,5.604-31.508,8.538-46.484,6.991
		c-0.146-0.015-0.439,1.047-0.582,1.031c-0.144-0.016-0.136-1.11-0.274-1.128c-4.189-0.509-6.942-1.445-7.101-2.881
		c-0.394,0.146-1.266,4.216-1.141,6.88c-0.108,3.057,18.811,3.438,30.904,2.229c13.566-1.358,26.238-4.623,26.789-6.569
		C59.561,24.18,57.854,21.225,57.576,20.292L57.576,20.292z"/>
	
		<linearGradient id="SVGID_17_" gradientUnits="userSpaceOnUse" x1="-4519.3369" y1="2272.2188" x2="-4474.4355" y2="2272.2188" gradientTransform="matrix(-0.9989 0.0471 0.0471 0.9989 -4565.6025 -2015.2568)">
		<stop  offset="0" style="stop-color:#C1812B"/>
		<stop  offset="0.0889" style="stop-color:#CE983D"/>
		<stop  offset="0.2172" style="stop-color:#E0B85D"/>
		<stop  offset="0.3355" style="stop-color:#EFD277"/>
		<stop  offset="0.4391" style="stop-color:#FAE387"/>
		<stop  offset="0.5165" style="stop-color:#FFEA8D"/>
		<stop  offset="0.5883" style="stop-color:#FAE387"/>
		<stop  offset="0.6865" style="stop-color:#EFD176"/>
		<stop  offset="0.7998" style="stop-color:#DFB75B"/>
		<stop  offset="0.9236" style="stop-color:#CD953B"/>
		<stop  offset="1" style="stop-color:#C1812B"/>
	</linearGradient>
	<path fill="url(#SVGID_17_)" stroke="#7D3118" stroke-width="0.5" d="M51.852,45.559c-0.582-1.385-3.815-2.102-8.127-2.313
		c-0.16-0.008-0.301-0.529-0.463-0.537c-0.211-0.008-0.443,0.5-0.656,0.494c-11.292-0.32-29.343,2.791-26.625,5.766
		c-1.354-0.359-4.597-5.102-5.163-7.701c1.84,1.906,9.273-2.942,21.818-4.012c6.188-0.527,12.28-0.23,18.45,0.418
		c2.028,0.213,4.254,0.221,4.459-1.17C55.67,39.17,52.209,43.031,51.852,45.559L51.852,45.559z"/>
</g>
</svg>
